<?xml version="1.0" encoding="UTF-8"?>
<!DOCTYPE svg PUBLIC "-//W3C//DTD SVG 1.1//EN" "http://www.w3.org/Graphics/SVG/1.1/DTD/svg11.dtd">
<svg version="1.2" width="210mm" height="297mm" viewBox="0 0 21000 29700" preserveAspectRatio="xMidYMid" fill-rule="evenodd" clip-path="url(#presentation_clip_path)" stroke-width="28.222" stroke-linejoin="round" xmlns="http://www.w3.org/2000/svg" xmlns:ooo="http://xml.openoffice.org/svg/export" xmlns:xlink="http://www.w3.org/1999/xlink" xml:space="preserve">
 <defs class="ClipPathGroup">
  <clipPath id="presentation_clip_path" clipPathUnits="userSpaceOnUse">
   <rect x="0" y="0" width="21000" height="29700"/>
  </clipPath>
 </defs>
 <defs class="TextShapeIndex">
  <g ooo:slide="id1" ooo:id-list="id3 id4 id5 id6 id7 id8 id9 id10 id11 id12 id13 id14 id15 id16 id17 id18 id19 id20 id21 id22 id23 id24 id25 id26 id27 id28 id29 id30 id31 id32 id33 id34 id35 id36 id37 id38 id39"/>
 </defs>
 <defs class="EmbeddedBulletChars">
  <g id="bullet-char-template(57356)" transform="scale(0.00048828125,-0.00048828125)">
   <path d="M 580,1141 L 1163,571 580,0 -4,571 580,1141 Z"/>
  </g>
  <g id="bullet-char-template(57354)" transform="scale(0.00048828125,-0.00048828125)">
   <path d="M 8,1128 L 1137,1128 1137,0 8,0 8,1128 Z"/>
  </g>
  <g id="bullet-char-template(10146)" transform="scale(0.00048828125,-0.00048828125)">
   <path d="M 174,0 L 602,739 174,1481 1456,739 174,0 Z M 1358,739 L 309,1346 659,739 1358,739 Z"/>
  </g>
  <g id="bullet-char-template(10132)" transform="scale(0.00048828125,-0.00048828125)">
   <path d="M 2015,739 L 1276,0 717,0 1260,543 174,543 174,936 1260,936 717,1481 1274,1481 2015,739 Z"/>
  </g>
  <g id="bullet-char-template(10007)" transform="scale(0.00048828125,-0.00048828125)">
   <path d="M 0,-2 C -7,14 -16,27 -25,37 L 356,567 C 262,823 215,952 215,954 215,979 228,992 255,992 264,992 276,990 289,987 310,991 331,999 354,1012 L 381,999 492,748 772,1049 836,1024 860,1049 C 881,1039 901,1025 922,1006 886,937 835,863 770,784 769,783 710,716 594,584 L 774,223 C 774,196 753,168 711,139 L 727,119 C 717,90 699,76 672,76 641,76 570,178 457,381 L 164,-76 C 142,-110 111,-127 72,-127 30,-127 9,-110 8,-76 1,-67 -2,-52 -2,-32 -2,-23 -1,-13 0,-2 Z"/>
  </g>
  <g id="bullet-char-template(10004)" transform="scale(0.00048828125,-0.00048828125)">
   <path d="M 285,-33 C 182,-33 111,30 74,156 52,228 41,333 41,471 41,549 55,616 82,672 116,743 169,778 240,778 293,778 328,747 346,684 L 369,508 C 377,444 397,411 428,410 L 1163,1116 C 1174,1127 1196,1133 1229,1133 1271,1133 1292,1118 1292,1087 L 1292,965 C 1292,929 1282,901 1262,881 L 442,47 C 390,-6 338,-33 285,-33 Z"/>
  </g>
  <g id="bullet-char-template(9679)" transform="scale(0.00048828125,-0.00048828125)">
   <path d="M 813,0 C 632,0 489,54 383,161 276,268 223,411 223,592 223,773 276,916 383,1023 489,1130 632,1184 813,1184 992,1184 1136,1130 1245,1023 1353,916 1407,772 1407,592 1407,412 1353,268 1245,161 1136,54 992,0 813,0 Z"/>
  </g>
  <g id="bullet-char-template(8226)" transform="scale(0.00048828125,-0.00048828125)">
   <path d="M 346,457 C 273,457 209,483 155,535 101,586 74,649 74,723 74,796 101,859 155,911 209,963 273,989 346,989 419,989 480,963 531,910 582,859 608,796 608,723 608,648 583,586 532,535 482,483 420,457 346,457 Z"/>
  </g>
  <g id="bullet-char-template(8211)" transform="scale(0.00048828125,-0.00048828125)">
   <path d="M -4,459 L 1135,459 1135,606 -4,606 -4,459 Z"/>
  </g>
 </defs>
 <defs class="TextEmbeddedBitmaps"/>
 <g>
  <g id="id2" class="Master_Slide">
   <g id="bg-id2" class="Background"/>
   <g id="bo-id2" class="BackgroundObjects"/>
  </g>
 </g>
 <g class="SlideGroup">
  <g>
   <g id="id1" class="Slide" clip-path="url(#presentation_clip_path)">
    <g class="Page">
     <g class="com.sun.star.drawing.CustomShape">
      <g id="id3">
       <path fill="rgb(128,128,128)" stroke="none" d="M 4819,4628 L 2469,4628 2469,2469 7168,2469 7168,4628 4819,4628 Z"/>
       <path fill="none" stroke="rgb(128,128,128)" d="M 4819,4628 L 2469,4628 2469,2469 7168,2469 7168,4628 4819,4628 Z"/>
       <text class="TextShape"><tspan class="TextParagraph" font-family="Nimbus Sans L, sans-serif" font-size="635px" font-weight="400"><tspan class="TextPosition" x="3593" y="3763"><tspan fill="rgb(128,128,128)" stroke="none">Availability</tspan></tspan></tspan></text>
       <path fill="rgb(131,202,255)" stroke="none" d="M 4619,4428 L 2269,4428 2269,2269 6968,2269 6968,4428 4619,4428 Z"/>
       <path fill="none" stroke="rgb(52,101,175)" d="M 4619,4428 L 2269,4428 2269,2269 6968,2269 6968,4428 4619,4428 Z"/>
       <text class="TextShape"><tspan class="TextParagraph" font-family="Nimbus Sans L, sans-serif" font-size="635px" font-weight="400"><tspan class="TextPosition" x="3393" y="3563"><tspan fill="rgb(0,0,0)" stroke="none">Availability</tspan></tspan></tspan></text>
      </g>
     </g>
     <g class="com.sun.star.drawing.CustomShape">
      <g id="id4">
       <path fill="rgb(128,128,128)" stroke="none" d="M 4819,8438 L 2469,8438 2469,6279 7168,6279 7168,8438 4819,8438 Z"/>
       <path fill="none" stroke="rgb(128,128,128)" d="M 4819,8438 L 2469,8438 2469,6279 7168,6279 7168,8438 4819,8438 Z"/>
       <text class="TextShape"><tspan class="TextParagraph" font-family="Nimbus Sans L, sans-serif" font-size="635px" font-weight="400"><tspan class="TextPosition" x="3995" y="7573"><tspan fill="rgb(128,128,128)" stroke="none">Person</tspan></tspan></tspan></text>
       <path fill="rgb(131,202,255)" stroke="none" d="M 4619,8238 L 2269,8238 2269,6079 6968,6079 6968,8238 4619,8238 Z"/>
       <path fill="none" stroke="rgb(52,101,175)" d="M 4619,8238 L 2269,8238 2269,6079 6968,6079 6968,8238 4619,8238 Z"/>
       <text class="TextShape"><tspan class="TextParagraph" font-family="Nimbus Sans L, sans-serif" font-size="635px" font-weight="400"><tspan class="TextPosition" x="3795" y="7373"><tspan fill="rgb(0,0,0)" stroke="none">Person</tspan></tspan></tspan></text>
      </g>
     </g>
     <g class="com.sun.star.drawing.CustomShape">
      <g id="id5">
       <path fill="rgb(128,128,128)" stroke="none" d="M 4819,12248 L 2469,12248 2469,10089 7168,10089 7168,12248 4819,12248 Z"/>
       <path fill="none" stroke="rgb(128,128,128)" d="M 4819,12248 L 2469,12248 2469,10089 7168,10089 7168,12248 4819,12248 Z"/>
       <text class="TextShape"><tspan class="TextParagraph" font-family="Nimbus Sans L, sans-serif" font-size="635px" font-weight="400"><tspan class="TextPosition" x="3695" y="11383"><tspan fill="rgb(128,128,128)" stroke="none">Allocation</tspan></tspan></tspan></text>
       <path fill="rgb(131,202,255)" stroke="none" d="M 4619,12048 L 2269,12048 2269,9889 6968,9889 6968,12048 4619,12048 Z"/>
       <path fill="none" stroke="rgb(52,101,175)" d="M 4619,12048 L 2269,12048 2269,9889 6968,9889 6968,12048 4619,12048 Z"/>
       <text class="TextShape"><tspan class="TextParagraph" font-family="Nimbus Sans L, sans-serif" font-size="635px" font-weight="400"><tspan class="TextPosition" x="3495" y="11183"><tspan fill="rgb(0,0,0)" stroke="none">Allocation</tspan></tspan></tspan></text>
      </g>
     </g>
     <g class="com.sun.star.drawing.CustomShape">
      <g id="id6">
       <path fill="rgb(128,128,128)" stroke="none" d="M 4819,18598 L 2469,18598 2469,16439 7168,16439 7168,18598 4819,18598 Z"/>
       <path fill="none" stroke="rgb(128,128,128)" d="M 4819,18598 L 2469,18598 2469,16439 7168,16439 7168,18598 4819,18598 Z"/>
       <text class="TextShape"><tspan class="TextParagraph" font-family="Nimbus Sans L, sans-serif" font-size="635px" font-weight="400"><tspan class="TextPosition" x="3346" y="17733"><tspan fill="rgb(128,128,128)" stroke="none">ContestType</tspan></tspan></tspan></text>
       <path fill="rgb(255,149,14)" stroke="none" d="M 4619,18398 L 2269,18398 2269,16239 6968,16239 6968,18398 4619,18398 Z"/>
       <path fill="none" stroke="rgb(52,101,175)" d="M 4619,18398 L 2269,18398 2269,16239 6968,16239 6968,18398 4619,18398 Z"/>
       <text class="TextShape"><tspan class="TextParagraph" font-family="Nimbus Sans L, sans-serif" font-size="635px" font-weight="400"><tspan class="TextPosition" x="3146" y="17533"><tspan fill="rgb(0,0,0)" stroke="none">ContestType</tspan></tspan></tspan></text>
      </g>
     </g>
     <g class="com.sun.star.drawing.CustomShape">
      <g id="id7">
       <path fill="rgb(128,128,128)" stroke="none" d="M 11169,22408 L 8819,22408 8819,20249 13518,20249 13518,22408 11169,22408 Z"/>
       <path fill="none" stroke="rgb(128,128,128)" d="M 11169,22408 L 8819,22408 8819,20249 13518,20249 13518,22408 11169,22408 Z"/>
       <text class="TextShape"><tspan class="TextParagraph" font-family="Nimbus Sans L, sans-serif" font-size="635px" font-weight="400"><tspan class="TextPosition" x="10504" y="21543"><tspan fill="rgb(128,128,128)" stroke="none">Event</tspan></tspan></tspan></text>
       <path fill="rgb(131,202,255)" stroke="none" d="M 10969,22208 L 8619,22208 8619,20049 13318,20049 13318,22208 10969,22208 Z"/>
       <path fill="none" stroke="rgb(52,101,175)" d="M 10969,22208 L 8619,22208 8619,20049 13318,20049 13318,22208 10969,22208 Z"/>
       <text class="TextShape"><tspan class="TextParagraph" font-family="Nimbus Sans L, sans-serif" font-size="635px" font-weight="400"><tspan class="TextPosition" x="10304" y="21343"><tspan fill="rgb(0,0,0)" stroke="none">Event</tspan></tspan></tspan></text>
      </g>
     </g>
     <g class="com.sun.star.drawing.CustomShape">
      <g id="id8">
       <path fill="rgb(128,128,128)" stroke="none" d="M 11169,26218 L 8819,26218 8819,24059 13518,24059 13518,26218 11169,26218 Z"/>
       <path fill="none" stroke="rgb(128,128,128)" d="M 11169,26218 L 8819,26218 8819,24059 13518,24059 13518,26218 11169,26218 Z"/>
       <text class="TextShape"><tspan class="TextParagraph" font-family="Nimbus Sans L, sans-serif" font-size="635px" font-weight="400"><tspan class="TextPosition" x="10189" y="25353"><tspan fill="rgb(128,128,128)" stroke="none">Location</tspan></tspan></tspan></text>
       <path fill="rgb(131,202,255)" stroke="none" d="M 10969,26018 L 8619,26018 8619,23859 13318,23859 13318,26018 10969,26018 Z"/>
       <path fill="none" stroke="rgb(52,101,175)" d="M 10969,26018 L 8619,26018 8619,23859 13318,23859 13318,26018 10969,26018 Z"/>
       <text class="TextShape"><tspan class="TextParagraph" font-family="Nimbus Sans L, sans-serif" font-size="635px" font-weight="400"><tspan class="TextPosition" x="9989" y="25153"><tspan fill="rgb(0,0,0)" stroke="none">Location</tspan></tspan></tspan></text>
      </g>
     </g>
     <g class="com.sun.star.drawing.CustomShape">
      <g id="id9">
       <path fill="rgb(128,128,128)" stroke="none" d="M 16630,12248 L 14280,12248 14280,10089 18979,10089 18979,12248 16630,12248 Z"/>
       <path fill="none" stroke="rgb(128,128,128)" d="M 16630,12248 L 14280,12248 14280,10089 18979,10089 18979,12248 16630,12248 Z"/>
       <text class="TextShape"><tspan class="TextParagraph" font-family="Nimbus Sans L, sans-serif" font-size="635px" font-weight="400"><tspan class="TextPosition" x="16211" y="11383"><tspan fill="rgb(128,128,128)" stroke="none">Job</tspan></tspan></tspan></text>
       <path fill="rgb(131,202,255)" stroke="none" d="M 16430,12048 L 14080,12048 14080,9889 18779,9889 18779,12048 16430,12048 Z"/>
       <path fill="none" stroke="rgb(52,101,175)" d="M 16430,12048 L 14080,12048 14080,9889 18779,9889 18779,12048 16430,12048 Z"/>
       <text class="TextShape"><tspan class="TextParagraph" font-family="Nimbus Sans L, sans-serif" font-size="635px" font-weight="400"><tspan class="TextPosition" x="16011" y="11183"><tspan fill="rgb(0,0,0)" stroke="none">Job</tspan></tspan></tspan></text>
      </g>
     </g>
     <g class="com.sun.star.drawing.CustomShape">
      <g id="id10">
       <path fill="rgb(128,128,128)" stroke="none" d="M 16630,8438 L 14280,8438 14280,6279 18979,6279 18979,8438 16630,8438 Z"/>
       <path fill="none" stroke="rgb(128,128,128)" d="M 16630,8438 L 14280,8438 14280,6279 18979,6279 18979,8438 16630,8438 Z"/>
       <text class="TextShape"><tspan class="TextParagraph" font-family="Nimbus Sans L, sans-serif" font-size="635px" font-weight="400"><tspan class="TextPosition" x="15633" y="7573"><tspan fill="rgb(128,128,128)" stroke="none">JobType</tspan></tspan></tspan></text>
       <path fill="rgb(255,149,14)" stroke="none" d="M 16430,8238 L 14080,8238 14080,6079 18779,6079 18779,8238 16430,8238 Z"/>
       <path fill="none" stroke="rgb(52,101,175)" d="M 16430,8238 L 14080,8238 14080,6079 18779,6079 18779,8238 16430,8238 Z"/>
       <text class="TextShape"><tspan class="TextParagraph" font-family="Nimbus Sans L, sans-serif" font-size="635px" font-weight="400"><tspan class="TextPosition" x="15433" y="7373"><tspan fill="rgb(0,0,0)" stroke="none">JobType</tspan></tspan></tspan></text>
      </g>
     </g>
     <g class="com.sun.star.drawing.CustomShape">
      <g id="id11">
       <path fill="rgb(128,128,128)" stroke="none" d="M 16630,18598 L 14280,18598 14280,16439 18979,16439 18979,18598 16630,18598 Z"/>
       <path fill="none" stroke="rgb(128,128,128)" d="M 16630,18598 L 14280,18598 14280,16439 18979,16439 18979,18598 16630,18598 Z"/>
       <text class="TextShape"><tspan class="TextParagraph" font-family="Nimbus Sans L, sans-serif" font-size="635px" font-weight="400"><tspan class="TextPosition" x="15607" y="17733"><tspan fill="rgb(128,128,128)" stroke="none">TimeSlot</tspan></tspan></tspan></text>
       <path fill="rgb(255,149,14)" stroke="none" d="M 16430,18398 L 14080,18398 14080,16239 18779,16239 18779,18398 16430,18398 Z"/>
       <path fill="none" stroke="rgb(52,101,175)" d="M 16430,18398 L 14080,18398 14080,16239 18779,16239 18779,18398 16430,18398 Z"/>
       <text class="TextShape"><tspan class="TextParagraph" font-family="Nimbus Sans L, sans-serif" font-size="635px" font-weight="400"><tspan class="TextPosition" x="15407" y="17533"><tspan fill="rgb(0,0,0)" stroke="none">TimeSlot</tspan></tspan></tspan></text>
      </g>
     </g>
     <g class="com.sun.star.drawing.CustomShape">
      <g id="id12">
       <path fill="rgb(128,128,128)" stroke="none" d="M 16630,4628 L 14280,4628 14280,2469 18979,2469 18979,4628 16630,4628 Z"/>
       <path fill="none" stroke="rgb(128,128,128)" d="M 16630,4628 L 14280,4628 14280,2469 18979,2469 18979,4628 16630,4628 Z"/>
       <text class="TextShape"><tspan class="TextParagraph" font-family="Nimbus Sans L, sans-serif" font-size="635px" font-weight="400"><tspan class="TextPosition" x="15967" y="3763"><tspan fill="rgb(128,128,128)" stroke="none">Team</tspan></tspan></tspan></text>
       <path fill="rgb(131,202,255)" stroke="none" d="M 16430,4428 L 14080,4428 14080,2269 18779,2269 18779,4428 16430,4428 Z"/>
       <path fill="none" stroke="rgb(52,101,175)" d="M 16430,4428 L 14080,4428 14080,2269 18779,2269 18779,4428 16430,4428 Z"/>
       <text class="TextShape"><tspan class="TextParagraph" font-family="Nimbus Sans L, sans-serif" font-size="635px" font-weight="400"><tspan class="TextPosition" x="15767" y="3563"><tspan fill="rgb(0,0,0)" stroke="none">Team</tspan></tspan></tspan></text>
      </g>
     </g>
     <g class="com.sun.star.drawing.ConnectorShape">
      <g id="id13">
       <path fill="none" stroke="rgb(0,0,0)" d="M 6969,7159 C 12451,7159 9108,3582 13622,3360"/>
       <path fill="rgb(0,0,0)" stroke="none" d="M 14081,3349 L 13627,3210 13635,3510 14081,3349 Z"/>
      </g>
     </g>
     <g class="com.sun.star.drawing.ConnectorShape">
      <g id="id14">
       <path fill="none" stroke="rgb(0,0,0)" d="M 6969,7159 L 13651,7159"/>
       <path fill="rgb(0,0,0)" stroke="none" d="M 14081,7159 L 13631,7009 13631,7309 14081,7159 Z"/>
      </g>
     </g>
     <g class="com.sun.star.drawing.ConnectorShape">
      <g id="id15">
       <path fill="none" stroke="rgb(0,0,0)" d="M 16430,9890 L 16430,8669"/>
       <path fill="rgb(0,0,0)" stroke="none" d="M 16430,8239 L 16280,8689 16580,8689 16430,8239 Z"/>
      </g>
     </g>
     <g class="com.sun.star.drawing.ConnectorShape">
      <g id="id16">
       <path fill="none" stroke="rgb(0,0,0)" d="M 4619,9890 L 4619,8669"/>
       <path fill="rgb(0,0,0)" stroke="none" d="M 4619,8239 L 4469,8689 4769,8689 4619,8239 Z"/>
      </g>
     </g>
     <g class="com.sun.star.drawing.ConnectorShape">
      <g id="id17">
       <path fill="none" stroke="rgb(0,0,0)" d="M 4619,4429 L 4619,5650"/>
       <path fill="rgb(0,0,0)" stroke="none" d="M 4619,6080 L 4769,5630 4469,5630 4619,6080 Z"/>
      </g>
     </g>
     <g class="com.sun.star.drawing.ConnectorShape">
      <g id="id18">
       <path fill="none" stroke="rgb(0,0,0)" d="M 2270,7159 C 1517,7159 1525,15292 2057,17005"/>
       <path fill="rgb(0,0,0)" stroke="none" d="M 2270,17319 L 2147,16861 1897,17026 2270,17319 Z"/>
      </g>
     </g>
     <g class="com.sun.star.drawing.ConnectorShape">
      <g id="id19">
       <path fill="none" stroke="rgb(0,0,0)" d="M 4619,20050 L 4619,18829"/>
       <path fill="rgb(0,0,0)" stroke="none" d="M 4619,18399 L 4469,18849 4769,18849 4619,18399 Z"/>
      </g>
     </g>
     <g class="com.sun.star.drawing.ConnectorShape">
      <g id="id20">
       <path fill="none" stroke="rgb(0,0,0)" d="M 8620,21129 L 7399,21129"/>
       <path fill="rgb(0,0,0)" stroke="none" d="M 6969,21129 L 7419,21279 7419,20979 6969,21129 Z"/>
      </g>
     </g>
     <g class="com.sun.star.drawing.CustomShape">
      <g id="id21">
       <path fill="rgb(230,230,230)" stroke="none" d="M 1717,22970 C 1358,22970 1000,23065 1000,23160 L 1000,23302 1000,23445 1000,23638 1000,23781 1000,23923 C 1000,24018 1358,24114 1717,24114 L 2255,24114 2793,24114 3525,24114 4063,24114 4601,24114 C 4960,24114 5319,24018 5319,23923 L 5319,23781 5319,23638 5319,23445 5319,23302 5319,23160 C 5319,23065 4960,22970 4601,22970 L 4063,22970 3525,22970 2793,22970 1592,20381 1717,22970 Z M 1000,22970 L 1000,22970 Z M 5319,24114 L 5319,24114 Z"/>
       <path fill="none" stroke="rgb(52,101,175)" d="M 1717,22970 C 1358,22970 1000,23065 1000,23160 L 1000,23302 1000,23445 1000,23638 1000,23781 1000,23923 C 1000,24018 1358,24114 1717,24114 L 2255,24114 2793,24114 3525,24114 4063,24114 4601,24114 C 4960,24114 5319,24018 5319,23923 L 5319,23781 5319,23638 5319,23445 5319,23302 5319,23160 C 5319,23065 4960,22970 4601,22970 L 4063,22970 3525,22970 2793,22970 1592,20381 1717,22970 Z"/>
       <path fill="none" stroke="rgb(52,101,175)" d="M 1000,22970 L 1000,22970 Z"/>
       <path fill="none" stroke="rgb(52,101,175)" d="M 5319,24114 L 5319,24114 Z"/>
       <text class="TextShape"><tspan class="TextParagraph" font-family="Nimbus Sans L, sans-serif" font-size="423px" font-weight="400"><tspan class="TextPosition" x="1593" y="23419"><tspan fill="rgb(0,0,0)" stroke="none">Takes responsiblility</tspan></tspan><tspan class="TextPosition" x="2956" y="23948"><tspan fill="rgb(0,0,0)" stroke="none">for</tspan></tspan></tspan></text>
      </g>
     </g>
     <g class="com.sun.star.drawing.CustomShape">
      <g id="id22">
       <path fill="rgb(128,128,128)" stroke="none" d="M 4819,22408 L 2469,22408 2469,20249 7168,20249 7168,22408 4819,22408 Z"/>
       <path fill="none" stroke="rgb(128,128,128)" d="M 4819,22408 L 2469,22408 2469,20249 7168,20249 7168,22408 4819,22408 Z"/>
       <text class="TextShape"><tspan class="TextParagraph" font-family="Nimbus Sans L, sans-serif" font-size="635px" font-weight="400"><tspan class="TextPosition" x="3923" y="21543"><tspan fill="rgb(128,128,128)" stroke="none">Contest</tspan></tspan></tspan></text>
       <path fill="rgb(131,202,255)" stroke="none" d="M 4619,22208 L 2269,22208 2269,20049 6968,20049 6968,22208 4619,22208 Z"/>
       <path fill="none" stroke="rgb(52,101,175)" d="M 4619,22208 L 2269,22208 2269,20049 6968,20049 6968,22208 4619,22208 Z"/>
       <text class="TextShape"><tspan class="TextParagraph" font-family="Nimbus Sans L, sans-serif" font-size="635px" font-weight="400"><tspan class="TextPosition" x="3723" y="21343"><tspan fill="rgb(0,0,0)" stroke="none">Contest</tspan></tspan></tspan></text>
      </g>
     </g>
     <g class="com.sun.star.drawing.ConnectorShape">
      <g id="id23">
       <path fill="none" stroke="rgb(0,0,0)" d="M 10969,22209 L 10969,23430"/>
       <path fill="rgb(0,0,0)" stroke="none" d="M 10969,23860 L 11119,23410 10819,23410 10969,23860 Z"/>
      </g>
     </g>
     <g class="com.sun.star.drawing.ConnectorShape">
      <g id="id24">
       <path fill="none" stroke="rgb(0,0,0)" d="M 10969,20050 C 10969,18961 15365,19637 16269,18761"/>
       <path fill="rgb(0,0,0)" stroke="none" d="M 16430,18399 L 16104,18744 16376,18870 16430,18399 Z"/>
      </g>
     </g>
     <g class="com.sun.star.drawing.ConnectorShape">
      <g id="id25">
       <path fill="none" stroke="rgb(0,0,0)" d="M 6969,3349 C 12451,3349 9072,16613 13700,17292"/>
       <path fill="rgb(0,0,0)" stroke="none" d="M 14081,17319 L 13643,17136 13621,17435 14081,17319 Z"/>
      </g>
     </g>
     <g class="com.sun.star.drawing.ConnectorShape">
      <g id="id26">
       <path fill="none" stroke="rgb(0,0,0)" d="M 6969,10969 L 13651,10969"/>
       <path fill="rgb(0,0,0)" stroke="none" d="M 14081,10969 L 13631,10819 13631,11119 14081,10969 Z"/>
      </g>
     </g>
     <g class="com.sun.star.drawing.ConnectorShape">
      <g id="id27">
       <path fill="none" stroke="rgb(0,0,0)" d="M 6969,10969 C 9636,10969 10903,13851 10967,19614"/>
       <path fill="rgb(0,0,0)" stroke="none" d="M 10969,20050 L 11116,19599 10816,19601 10969,20050 Z"/>
      </g>
     </g>
     <g class="com.sun.star.drawing.CustomShape">
      <g id="id28">
       <path fill="rgb(230,230,230)" stroke="none" d="M 13868,22208 C 13657,22208 13446,22366 13446,22524 L 10958,23120 13446,22999 13446,23322 13446,23559 13446,23797 C 13446,23955 13657,24114 13868,24114 L 14184,24114 14501,24114 14931,24114 15248,24114 15564,24114 C 15775,24114 15987,23955 15987,23797 L 15987,23559 15987,23322 15987,22999 15987,22762 15987,22524 C 15987,22366 15775,22208 15564,22208 L 15248,22208 14931,22208 14501,22208 14184,22208 13868,22208 Z M 13446,22208 L 13446,22208 Z M 15987,24114 L 15987,24114 Z"/>
       <path fill="none" stroke="rgb(52,101,175)" d="M 13868,22208 C 13657,22208 13446,22366 13446,22524 L 10958,23120 13446,22999 13446,23322 13446,23559 13446,23797 C 13446,23955 13657,24114 13868,24114 L 14184,24114 14501,24114 14931,24114 15248,24114 15564,24114 C 15775,24114 15987,23955 15987,23797 L 15987,23559 15987,23322 15987,22999 15987,22762 15987,22524 C 15987,22366 15775,22208 15564,22208 L 15248,22208 14931,22208 14501,22208 14184,22208 13868,22208 Z"/>
       <path fill="none" stroke="rgb(52,101,175)" d="M 13446,22208 L 13446,22208 Z"/>
       <path fill="none" stroke="rgb(52,101,175)" d="M 15987,24114 L 15987,24114 Z"/>
       <text class="TextShape"><tspan class="TextParagraph" font-family="Nimbus Sans L, sans-serif" font-size="423px" font-weight="400"><tspan class="TextPosition" x="14242" y="22773"><tspan fill="rgb(0,0,0)" stroke="none">Takes</tspan></tspan><tspan class="TextPosition" x="14299" y="23302"><tspan fill="rgb(0,0,0)" stroke="none">p</tspan><tspan fill="rgb(0,0,0)" stroke="none">lace</tspan></tspan></tspan><tspan class="TextParagraph" font-family="Nimbus Sans L, sans-serif" font-size="423px" font-weight="400"><tspan class="TextPosition" x="14581" y="23831"><tspan fill="rgb(0,0,0)" stroke="none">in</tspan></tspan></tspan></text>
      </g>
     </g>
     <g class="com.sun.star.drawing.CustomShape">
      <g id="id29">
       <path fill="rgb(230,230,230)" stroke="none" d="M 3644,12810 C 3464,12810 3285,12968 3285,13126 L 1699,13341 3285,13601 3285,13924 3285,14161 3285,14399 C 3285,14557 3464,14716 3644,14716 L 3913,14716 4182,14716 4548,14716 4817,14716 5086,14716 C 5265,14716 5445,14557 5445,14399 L 5445,14161 5445,13924 5445,13601 5445,13364 5445,13126 C 5445,12968 5265,12810 5086,12810 L 4817,12810 4548,12810 4182,12810 3913,12810 3644,12810 Z M 3285,12810 L 3285,12810 Z M 5445,14716 L 5445,14716 Z"/>
       <path fill="none" stroke="rgb(52,101,175)" d="M 3644,12810 C 3464,12810 3285,12968 3285,13126 L 1699,13341 3285,13601 3285,13924 3285,14161 3285,14399 C 3285,14557 3464,14716 3644,14716 L 3913,14716 4182,14716 4548,14716 4817,14716 5086,14716 C 5265,14716 5445,14557 5445,14399 L 5445,14161 5445,13924 5445,13601 5445,13364 5445,13126 C 5445,12968 5265,12810 5086,12810 L 4817,12810 4548,12810 4182,12810 3913,12810 3644,12810 Z"/>
       <path fill="none" stroke="rgb(52,101,175)" d="M 3285,12810 L 3285,12810 Z"/>
       <path fill="none" stroke="rgb(52,101,175)" d="M 5445,14716 L 5445,14716 Z"/>
       <text class="TextShape"><tspan class="TextParagraph" font-family="Nimbus Sans L, sans-serif" font-size="423px" font-weight="400"><tspan class="TextPosition" x="3872" y="13640"><tspan fill="rgb(0,0,0)" stroke="none">Would</tspan></tspan></tspan><tspan class="TextParagraph" font-family="Nimbus Sans L, sans-serif" font-size="423px" font-weight="400"><tspan class="TextPosition" x="4046" y="14169"><tspan fill="rgb(0,0,0)" stroke="none">Like</tspan></tspan></tspan></text>
      </g>
     </g>
     <g class="com.sun.star.drawing.CustomShape">
      <g id="id30">
       <path fill="rgb(230,230,230)" stroke="none" d="M 11540,7477 C 11350,7477 11160,7624 11160,7772 L 11160,7994 11160,8215 11160,8517 11160,8738 11160,8960 C 11160,9108 11350,9256 11540,9256 L 11824,9256 12109,9256 12497,9256 12782,9256 13066,9256 C 13256,9256 13447,9108 13447,8960 L 13447,8738 13447,8517 13447,8215 13447,7994 13447,7772 C 13447,7624 13256,7477 13066,7477 L 12782,7477 12497,7477 12109,7477 11418,7214 11540,7477 Z M 11160,7477 L 11160,7477 Z M 13447,9256 L 13447,9256 Z"/>
       <path fill="none" stroke="rgb(52,101,175)" d="M 11540,7477 C 11350,7477 11160,7624 11160,7772 L 11160,7994 11160,8215 11160,8517 11160,8738 11160,8960 C 11160,9108 11350,9256 11540,9256 L 11824,9256 12109,9256 12497,9256 12782,9256 13066,9256 C 13256,9256 13447,9108 13447,8960 L 13447,8738 13447,8517 13447,8215 13447,7994 13447,7772 C 13447,7624 13256,7477 13066,7477 L 12782,7477 12497,7477 12109,7477 11418,7214 11540,7477 Z"/>
       <path fill="none" stroke="rgb(52,101,175)" d="M 11160,7477 L 11160,7477 Z"/>
       <path fill="none" stroke="rgb(52,101,175)" d="M 13447,9256 L 13447,9256 Z"/>
       <text class="TextShape"><tspan class="TextParagraph" font-family="Nimbus Sans L, sans-serif" font-size="423px" font-weight="400"><tspan class="TextPosition" x="11810" y="8243"><tspan fill="rgb(0,0,0)" stroke="none">Would</tspan></tspan></tspan><tspan class="TextParagraph" font-family="Nimbus Sans L, sans-serif" font-size="423px" font-weight="400"><tspan class="TextPosition" x="11984" y="8772"><tspan fill="rgb(0,0,0)" stroke="none">Like</tspan></tspan></tspan></text>
      </g>
     </g>
     <g class="com.sun.star.drawing.CustomShape">
      <g id="id31">
       <path fill="rgb(230,230,230)" stroke="none" d="M 8935,2016 C 8777,2016 8619,2121 8619,2227 L 8619,2385 8619,2543 8619,2759 8619,2917 8619,3075 C 8619,3181 8777,3287 8935,3287 L 8695,3960 9410,3287 9733,3287 9970,3287 10208,3287 C 10366,3287 10525,3181 10525,3075 L 10525,2917 10525,2759 10525,2543 10525,2385 10525,2227 C 10525,2121 10366,2016 10208,2016 L 9970,2016 9733,2016 9410,2016 9173,2016 8935,2016 Z M 8619,2016 L 8619,2016 Z M 10525,3287 L 10525,3287 Z"/>
       <path fill="none" stroke="rgb(52,101,175)" d="M 8935,2016 C 8777,2016 8619,2121 8619,2227 L 8619,2385 8619,2543 8619,2759 8619,2917 8619,3075 C 8619,3181 8777,3287 8935,3287 L 8695,3960 9410,3287 9733,3287 9970,3287 10208,3287 C 10366,3287 10525,3181 10525,3075 L 10525,2917 10525,2759 10525,2543 10525,2385 10525,2227 C 10525,2121 10366,2016 10208,2016 L 9970,2016 9733,2016 9410,2016 9173,2016 8935,2016 Z"/>
       <path fill="none" stroke="rgb(52,101,175)" d="M 8619,2016 L 8619,2016 Z"/>
       <path fill="none" stroke="rgb(52,101,175)" d="M 10525,3287 L 10525,3287 Z"/>
       <text class="TextShape"><tspan class="TextParagraph" font-family="Nimbus Sans L, sans-serif" font-size="423px" font-weight="400"><tspan class="TextPosition" x="8864" y="2528"><tspan fill="rgb(0,0,0)" stroke="none">Available</tspan></tspan><tspan class="TextPosition" x="9425" y="3057"><tspan fill="rgb(0,0,0)" stroke="none">at</tspan></tspan></tspan></text>
      </g>
     </g>
     <g class="com.sun.star.drawing.CustomShape">
      <g id="id32">
       <path fill="rgb(230,230,230)" stroke="none" d="M 5633,4556 C 5475,4556 5317,4661 5317,4767 L 4609,4985 5317,5083 5317,5299 5317,5457 5317,5615 C 5317,5721 5475,5827 5633,5827 L 5871,5827 6108,5827 6431,5827 6668,5827 6906,5827 C 7064,5827 7223,5721 7223,5615 L 7223,5457 7223,5299 7223,5083 7223,4925 7223,4767 C 7223,4661 7064,4556 6906,4556 L 6668,4556 6431,4556 6108,4556 5871,4556 5633,4556 Z M 5317,4556 L 5317,4556 Z M 7223,5827 L 7223,5827 Z"/>
       <path fill="none" stroke="rgb(52,101,175)" d="M 5633,4556 C 5475,4556 5317,4661 5317,4767 L 4609,4985 5317,5083 5317,5299 5317,5457 5317,5615 C 5317,5721 5475,5827 5633,5827 L 5871,5827 6108,5827 6431,5827 6668,5827 6906,5827 C 7064,5827 7223,5721 7223,5615 L 7223,5457 7223,5299 7223,5083 7223,4925 7223,4767 C 7223,4661 7064,4556 6906,4556 L 6668,4556 6431,4556 6108,4556 5871,4556 5633,4556 Z"/>
       <path fill="none" stroke="rgb(52,101,175)" d="M 5317,4556 L 5317,4556 Z"/>
       <path fill="none" stroke="rgb(52,101,175)" d="M 7223,5827 L 7223,5827 Z"/>
       <text class="TextShape"><tspan class="TextParagraph" font-family="Nimbus Sans L, sans-serif" font-size="423px" font-weight="400"><tspan class="TextPosition" x="6134" y="5068"><tspan fill="rgb(0,0,0)" stroke="none">Is</tspan></tspan><tspan class="TextPosition" x="5581" y="5597"><tspan fill="rgb(0,0,0)" stroke="none">available</tspan></tspan></tspan></text>
      </g>
     </g>
     <g class="com.sun.star.drawing.CustomShape">
      <g id="id33">
       <path fill="rgb(230,230,230)" stroke="none" d="M 11540,4302 C 11350,4302 11160,4449 11160,4597 L 11160,4819 11160,5040 11160,5342 11160,5563 11160,5785 C 11160,5933 11350,6081 11540,6081 L 11824,6081 12109,6081 12497,6081 12782,6081 13066,6081 C 13256,6081 13447,5933 13447,5785 L 13447,5563 13447,5342 13447,5040 13447,4819 13447,4597 C 13447,4449 13256,4302 13066,4302 L 12782,4302 12497,4302 12109,4302 11418,4039 11540,4302 Z M 11160,4302 L 11160,4302 Z M 13447,6081 L 13447,6081 Z"/>
       <path fill="none" stroke="rgb(52,101,175)" d="M 11540,4302 C 11350,4302 11160,4449 11160,4597 L 11160,4819 11160,5040 11160,5342 11160,5563 11160,5785 C 11160,5933 11350,6081 11540,6081 L 11824,6081 12109,6081 12497,6081 12782,6081 13066,6081 C 13256,6081 13447,5933 13447,5785 L 13447,5563 13447,5342 13447,5040 13447,4819 13447,4597 C 13447,4449 13256,4302 13066,4302 L 12782,4302 12497,4302 12109,4302 11418,4039 11540,4302 Z"/>
       <path fill="none" stroke="rgb(52,101,175)" d="M 11160,4302 L 11160,4302 Z"/>
       <path fill="none" stroke="rgb(52,101,175)" d="M 13447,6081 L 13447,6081 Z"/>
       <text class="TextShape"><tspan class="TextParagraph" font-family="Nimbus Sans L, sans-serif" font-size="423px" font-weight="400"><tspan class="TextPosition" x="11810" y="5068"><tspan fill="rgb(0,0,0)" stroke="none">Would</tspan></tspan></tspan><tspan class="TextParagraph" font-family="Nimbus Sans L, sans-serif" font-size="423px" font-weight="400"><tspan class="TextPosition" x="11984" y="5597"><tspan fill="rgb(0,0,0)" stroke="none">Like</tspan></tspan></tspan></text>
      </g>
     </g>
     <g class="com.sun.star.drawing.CustomShape">
      <g id="id34">
       <path fill="rgb(230,230,230)" stroke="none" d="M 7349,8366 C 7159,8366 6969,8513 6969,8661 L 4708,8995 6969,9104 6969,9406 6969,9627 6969,9849 C 6969,9997 7159,10145 7349,10145 L 7633,10145 7918,10145 8306,10145 8591,10145 8875,10145 C 9065,10145 9256,9997 9256,9849 L 9256,9627 9256,9406 9256,9104 9256,8883 9256,8661 C 9256,8513 9065,8366 8875,8366 L 8591,8366 8306,8366 7918,8366 7633,8366 7349,8366 Z M 6969,8366 L 6969,8366 Z M 9256,10145 L 9256,10145 Z"/>
       <path fill="none" stroke="rgb(52,101,175)" d="M 7349,8366 C 7159,8366 6969,8513 6969,8661 L 4708,8995 6969,9104 6969,9406 6969,9627 6969,9849 C 6969,9997 7159,10145 7349,10145 L 7633,10145 7918,10145 8306,10145 8591,10145 8875,10145 C 9065,10145 9256,9997 9256,9849 L 9256,9627 9256,9406 9256,9104 9256,8883 9256,8661 C 9256,8513 9065,8366 8875,8366 L 8591,8366 8306,8366 7918,8366 7633,8366 7349,8366 Z"/>
       <path fill="none" stroke="rgb(52,101,175)" d="M 6969,8366 L 6969,8366 Z"/>
       <path fill="none" stroke="rgb(52,101,175)" d="M 9256,10145 L 9256,10145 Z"/>
       <text class="TextShape"><tspan class="TextParagraph" font-family="Nimbus Sans L, sans-serif" font-size="423px" font-weight="400"><tspan class="TextPosition" x="7977" y="9132"><tspan fill="rgb(0,0,0)" stroke="none">Is</tspan></tspan><tspan class="TextPosition" x="7414" y="9661"><tspan fill="rgb(0,0,0)" stroke="none">allocated</tspan></tspan></tspan></text>
      </g>
     </g>
     <g class="com.sun.star.drawing.CustomShape">
      <g id="id35">
       <path fill="rgb(230,230,230)" stroke="none" d="M 7899,17382 C 7688,17382 7477,17540 7477,17698 L 7477,17936 7477,18173 7477,18496 7477,18733 7477,18971 C 7477,19129 7688,19288 7899,19288 L 7937,21055 8532,19288 8962,19288 9279,19288 9595,19288 C 9806,19288 10018,19129 10018,18971 L 10018,18733 10018,18496 10018,18173 10018,17936 10018,17698 C 10018,17540 9806,17382 9595,17382 L 9279,17382 8962,17382 8532,17382 8215,17382 7899,17382 Z M 7477,17382 L 7477,17382 Z M 10018,19288 L 10018,19288 Z"/>
       <path fill="none" stroke="rgb(52,101,175)" d="M 7899,17382 C 7688,17382 7477,17540 7477,17698 L 7477,17936 7477,18173 7477,18496 7477,18733 7477,18971 C 7477,19129 7688,19288 7899,19288 L 7937,21055 8532,19288 8962,19288 9279,19288 9595,19288 C 9806,19288 10018,19129 10018,18971 L 10018,18733 10018,18496 10018,18173 10018,17936 10018,17698 C 10018,17540 9806,17382 9595,17382 L 9279,17382 8962,17382 8532,17382 8215,17382 7899,17382 Z"/>
       <path fill="none" stroke="rgb(52,101,175)" d="M 7477,17382 L 7477,17382 Z"/>
       <path fill="none" stroke="rgb(52,101,175)" d="M 10018,19288 L 10018,19288 Z"/>
       <text class="TextShape"><tspan class="TextParagraph" font-family="Nimbus Sans L, sans-serif" font-size="423px" font-weight="400"><tspan class="TextPosition" x="8080" y="17947"><tspan fill="rgb(0,0,0)" stroke="none">Consists</tspan></tspan><tspan class="TextPosition" x="8601" y="18476"><tspan fill="rgb(0,0,0)" stroke="none">of</tspan></tspan><tspan class="TextPosition" x="8214" y="19005"><tspan fill="rgb(0,0,0)" stroke="none">Events</tspan></tspan></tspan></text>
      </g>
     </g>
     <g class="com.sun.star.drawing.CustomShape">
      <g id="id36">
       <path fill="rgb(230,230,230)" stroke="none" d="M 16916,19795 C 16705,19795 16494,19953 16494,20111 L 14278,19274 16494,20586 16494,20909 16494,21146 16494,21384 C 16494,21542 16705,21701 16916,21701 L 17232,21701 17549,21701 17979,21701 18296,21701 18612,21701 C 18823,21701 19035,21542 19035,21384 L 19035,21146 19035,20909 19035,20586 19035,20349 19035,20111 C 19035,19953 18823,19795 18612,19795 L 18296,19795 17979,19795 17549,19795 17232,19795 16916,19795 Z M 16494,19795 L 16494,19795 Z M 19035,21701 L 19035,21701 Z"/>
       <path fill="none" stroke="rgb(52,101,175)" d="M 16916,19795 C 16705,19795 16494,19953 16494,20111 L 14278,19274 16494,20586 16494,20909 16494,21146 16494,21384 C 16494,21542 16705,21701 16916,21701 L 17232,21701 17549,21701 17979,21701 18296,21701 18612,21701 C 18823,21701 19035,21542 19035,21384 L 19035,21146 19035,20909 19035,20586 19035,20349 19035,20111 C 19035,19953 18823,19795 18612,19795 L 18296,19795 17979,19795 17549,19795 17232,19795 16916,19795 Z"/>
       <path fill="none" stroke="rgb(52,101,175)" d="M 16494,19795 L 16494,19795 Z"/>
       <path fill="none" stroke="rgb(52,101,175)" d="M 19035,21701 L 19035,21701 Z"/>
       <text class="TextShape"><tspan class="TextParagraph" font-family="Nimbus Sans L, sans-serif" font-size="423px" font-weight="400"><tspan class="TextPosition" x="17290" y="20360"><tspan fill="rgb(0,0,0)" stroke="none">Takes</tspan></tspan><tspan class="TextPosition" x="17347" y="20889"><tspan fill="rgb(0,0,0)" stroke="none">p</tspan><tspan fill="rgb(0,0,0)" stroke="none">lace</tspan></tspan></tspan><tspan class="TextParagraph" font-family="Nimbus Sans L, sans-serif" font-size="423px" font-weight="400"><tspan class="TextPosition" x="17618" y="21418"><tspan fill="rgb(0,0,0)" stroke="none">at</tspan></tspan></tspan></text>
      </g>
     </g>
     <g class="com.sun.star.drawing.CustomShape">
      <g id="id37">
       <path fill="rgb(230,230,230)" stroke="none" d="M 7792,13573 C 7634,13573 7476,13678 7476,13784 L 7476,13942 7476,14100 7476,14316 7476,14474 7476,14632 C 7476,14738 7634,14844 7792,14844 L 8030,14844 8267,14844 8590,14844 8827,14844 9065,14844 C 9223,14844 9382,14738 9382,14632 L 9382,14474 9382,14316 9382,14100 10215,14001 9382,13784 C 9382,13678 9223,13573 9065,13573 L 8827,13573 8590,13573 8267,13573 8030,13573 7792,13573 Z M 7476,13573 L 7476,13573 Z M 9382,14844 L 9382,14844 Z"/>
       <path fill="none" stroke="rgb(52,101,175)" d="M 7792,13573 C 7634,13573 7476,13678 7476,13784 L 7476,13942 7476,14100 7476,14316 7476,14474 7476,14632 C 7476,14738 7634,14844 7792,14844 L 8030,14844 8267,14844 8590,14844 8827,14844 9065,14844 C 9223,14844 9382,14738 9382,14632 L 9382,14474 9382,14316 9382,14100 10215,14001 9382,13784 C 9382,13678 9223,13573 9065,13573 L 8827,13573 8590,13573 8267,13573 8030,13573 7792,13573 Z"/>
       <path fill="none" stroke="rgb(52,101,175)" d="M 7476,13573 L 7476,13573 Z"/>
       <path fill="none" stroke="rgb(52,101,175)" d="M 9382,14844 L 9382,14844 Z"/>
       <text class="TextShape"><tspan class="TextParagraph" font-family="Nimbus Sans L, sans-serif" font-size="423px" font-weight="400"><tspan class="TextPosition" x="7730" y="14085"><tspan fill="rgb(0,0,0)" stroke="none">allocated</tspan></tspan><tspan class="TextPosition" x="8226" y="14614"><tspan fill="rgb(0,0,0)" stroke="none">for</tspan></tspan></tspan></text>
      </g>
     </g>
     <g class="com.sun.star.drawing.CustomShape">
      <g id="id38">
       <path fill="rgb(230,230,230)" stroke="none" d="M 11729,11922 C 11571,11922 11413,12027 11413,12133 L 11413,12291 11413,12449 11413,12665 11413,12823 11413,12981 C 11413,13087 11571,13193 11729,13193 L 11967,13193 12204,13193 12527,13193 12764,13193 13002,13193 C 13160,13193 13319,13087 13319,12981 L 13319,12823 13319,12665 13319,12449 13319,12291 13319,12133 C 13319,12027 13160,11922 13002,11922 L 12764,11922 12527,11922 12204,11922 11792,10994 11729,11922 Z M 11413,11922 L 11413,11922 Z M 13319,13193 L 13319,13193 Z"/>
       <path fill="none" stroke="rgb(52,101,175)" d="M 11729,11922 C 11571,11922 11413,12027 11413,12133 L 11413,12291 11413,12449 11413,12665 11413,12823 11413,12981 C 11413,13087 11571,13193 11729,13193 L 11967,13193 12204,13193 12527,13193 12764,13193 13002,13193 C 13160,13193 13319,13087 13319,12981 L 13319,12823 13319,12665 13319,12449 13319,12291 13319,12133 C 13319,12027 13160,11922 13002,11922 L 12764,11922 12527,11922 12204,11922 11792,10994 11729,11922 Z"/>
       <path fill="none" stroke="rgb(52,101,175)" d="M 11413,11922 L 11413,11922 Z"/>
       <path fill="none" stroke="rgb(52,101,175)" d="M 13319,13193 L 13319,13193 Z"/>
       <text class="TextShape"><tspan class="TextParagraph" font-family="Nimbus Sans L, sans-serif" font-size="423px" font-weight="400"><tspan class="TextPosition" x="11667" y="12434"><tspan fill="rgb(0,0,0)" stroke="none">allocated</tspan></tspan><tspan class="TextPosition" x="12163" y="12963"><tspan fill="rgb(0,0,0)" stroke="none">for</tspan></tspan></tspan></text>
      </g>
     </g>
     <g class="com.sun.star.drawing.ConnectorShape">
      <g id="id39">
       <path fill="none" stroke="rgb(0,0,0)" d="M 2270,21129 C 557,21129 563,8779 1981,7303"/>
       <path fill="rgb(0,0,0)" stroke="none" d="M 2270,7159 L 1802,7236 1942,7501 2270,7159 Z"/>
      </g>
     </g>
    </g>
   </g>
  </g>
 </g>
</svg>