<?xml version="1.0" encoding="UTF-8" standalone="no"?>
<!-- Created with Inkscape (http://www.inkscape.org/) -->

<svg
   xmlns:dc="http://purl.org/dc/elements/1.1/"
   xmlns:cc="http://creativecommons.org/ns#"
   xmlns:rdf="http://www.w3.org/1999/02/22-rdf-syntax-ns#"
   xmlns:svg="http://www.w3.org/2000/svg"
   xmlns="http://www.w3.org/2000/svg"
   xmlns:sodipodi="http://sodipodi.sourceforge.net/DTD/sodipodi-0.dtd"
   xmlns:inkscape="http://www.inkscape.org/namespaces/inkscape"
   width="16"
   height="16"
   id="svg2985"
   version="1.1"
   inkscape:version="0.48.4 r9939"
   sodipodi:docname="address16.svg">
  <defs
     id="defs2987" />
  <sodipodi:namedview
     id="base"
     pagecolor="#ffffff"
     bordercolor="#666666"
     borderopacity="1.0"
     inkscape:pageopacity="0.0"
     inkscape:pageshadow="2"
     inkscape:zoom="50.5"
     inkscape:cx="8"
     inkscape:cy="8"
     inkscape:current-layer="layer1"
     showgrid="true"
     inkscape:grid-bbox="true"
     inkscape:document-units="px"
     inkscape:window-width="1280"
     inkscape:window-height="977"
     inkscape:window-x="0"
     inkscape:window-y="281"
     inkscape:window-maximized="1"
     inkscape:snap-bbox="true">
    <inkscape:grid
       type="xygrid"
       id="grid3012"
       empspacing="4"
       visible="true"
       enabled="true"
       snapvisiblegridlinesonly="true" />
  </sodipodi:namedview>
  <metadata
     id="metadata2990">
    <rdf:RDF>
      <cc:Work
         rdf:about="">
        <dc:format>image/svg+xml</dc:format>
        <dc:type
           rdf:resource="http://purl.org/dc/dcmitype/StillImage" />
        <dc:title></dc:title>
      </cc:Work>
    </rdf:RDF>
  </metadata>
  <g
     id="layer1"
     inkscape:label="Layer 1"
     inkscape:groupmode="layer"
     transform="translate(0,-16)">
    <path
       style="fill:#00314e;fill-opacity:1;stroke:none"
       d="m 8,18.000453 c -1.6741606,-0.03001 -3.1381571,1.434708 -3.3739143,3.130498 -0.3221963,1.774213 0.6787202,3.748584 2.3546964,4.306173 1.4227432,0.52283 3.0912819,-0.171857 3.8613119,-1.506065 C 11.872998,22.29452 11.507461,19.871115 9.9841061,18.702242 9.4183398,18.252409 8.7120124,17.997481 8,18.000453 z m 0,7.607683 c -1.5921976,0.02611 -3.3129211,0.115847 -4.6686653,1.091267 -1.0393212,0.746403 -1.3599427,2.136686 -1.3293676,3.383841 3.9986884,0 7.9973774,0 11.9960659,0 0.03058,-1.247155 -0.290047,-2.637438 -1.329368,-3.383841 C 11.318102,25.723488 9.5864599,25.634947 8,25.608136 z"
       id="path3014"
       inkscape:connector-curvature="0" />
  </g>
</svg>
