<?xml version="1.0" encoding="UTF-8" standalone="no"?>
<!-- Created with Inkscape (http://www.inkscape.org/) -->

<svg
   xmlns:dc="http://purl.org/dc/elements/1.1/"
   xmlns:cc="http://creativecommons.org/ns#"
   xmlns:rdf="http://www.w3.org/1999/02/22-rdf-syntax-ns#"
   xmlns:svg="http://www.w3.org/2000/svg"
   xmlns="http://www.w3.org/2000/svg"
   xmlns:sodipodi="http://sodipodi.sourceforge.net/DTD/sodipodi-0.dtd"
   xmlns:inkscape="http://www.inkscape.org/namespaces/inkscape"
   width="16px"
   height="16px"
   id="svg2985"
   version="1.1"
   inkscape:version="0.48.4 r9939"
   sodipodi:docname="group.svg"
   inkscape:export-filename="/home/harald/NetBeansProjects/JMAdmin/artwork/group.png"
   inkscape:export-xdpi="90"
   inkscape:export-ydpi="90">
  <defs
     id="defs2987" />
  <sodipodi:namedview
     id="base"
     pagecolor="#ffffff"
     bordercolor="#666666"
     borderopacity="1.0"
     inkscape:pageopacity="0.0"
     inkscape:pageshadow="2"
     inkscape:zoom="21.41"
     inkscape:cx="8.0005459"
     inkscape:cy="8.0005459"
     inkscape:current-layer="layer2"
     showgrid="true"
     inkscape:grid-bbox="true"
     inkscape:document-units="px"
     inkscape:snap-grids="true"
     inkscape:window-width="1280"
     inkscape:window-height="977"
     inkscape:window-x="0"
     inkscape:window-y="281"
     inkscape:window-maximized="1"
     gridtolerance="10"
     inkscape:snap-global="true"
     inkscape:snap-bbox="true"
     inkscape:snap-nodes="true"
     inkscape:bbox-nodes="true">
    <inkscape:grid
       type="xygrid"
       id="grid2993"
       empspacing="8"
       visible="true"
       enabled="true"
       snapvisiblegridlinesonly="false"
       empcolor="#00009d"
       empopacity="0.47058824"
       spacingx="0.5px"
       spacingy="0.5px" />
  </sodipodi:namedview>
  <metadata
     id="metadata2990">
    <rdf:RDF>
      <cc:Work
         rdf:about="">
        <dc:format>image/svg+xml</dc:format>
        <dc:type
           rdf:resource="http://purl.org/dc/dcmitype/StillImage" />
        <dc:title></dc:title>
      </cc:Work>
    </rdf:RDF>
  </metadata>
  <g
     id="layer1"
     inkscape:label="Layer 1"
     inkscape:groupmode="layer"
     style="display:none">
    <path
       style="fill:#00314e;fill-opacity:1;stroke:#000000;stroke-width:0.30000001;stroke-miterlimit:4;stroke-opacity:1;stroke-dasharray:none"
       d="M 8,1.03125 C 6.9105252,1.03125 6.03125,1.6784653 6.03125,2.5 6.03125,3.3215347 6.9105252,4 8,4 9.0894748,4 9.96875,3.3215347 9.96875,2.5 9.96875,1.6784653 9.0894748,1.03125 8,1.03125 z M 4.59375,5 1,9 2.4375,9 5.75,5.3125 6.5,8 3,12 6.1980198,12 6.5,15 7.5,15 7.2113243,12 9,12 l -0.34375,3 1,0 L 10,12 13,12 9.5,8 10.21875,5.28125 13.5625,9 15,9 11.40625,5 z"
       id="path3057"
       inkscape:connector-curvature="0"
       sodipodi:nodetypes="sssssccccccccccccccccccccc" />
    <rect
       style="fill:#0e232e;fill-opacity:1;stroke:none"
       id="rect3059"
       width="1.5629822"
       height="6.8313198"
       x="25.60841"
       y="6.6982603"
       transform="matrix(1,0,-0.26692926,0.96371613,0,0)" />
  </g>
  <g
     inkscape:groupmode="layer"
     id="layer2"
     inkscape:label="Layer"
     style="display:inline">
    <path
       style="fill:#658ea7;fill-opacity:1;stroke:#000000;stroke-width:0.27587414;stroke-miterlimit:4;stroke-opacity:1;stroke-dasharray:none"
       d="m 10.38479,1.6379371 c -1.0157409,0 -1.8391613,0.6175653 -1.8391613,1.3793706 0,0.7618053 0.8234204,1.3793706 1.8391613,1.3793706 1.01574,0 1.839161,-0.6175653 1.839161,-1.3793706 0,-0.7618053 -0.823421,-1.3793706 -1.839161,-1.3793706 z M 6.9076261,5.3162587 4.4075169,9.914161 l 1.1782124,0 2.0115821,-3.6783218 0.4885271,0 0,8.2762238 1.3793707,0 0,-5.5174826 1.8391608,0 0,5.5174826 1.379371,0 0,-8.2762238 0.488527,0 2.011582,3.6783218 1.178213,0 -2.50011,-4.5979023 z"
       id="path3913"
       inkscape:connector-curvature="0"
       sodipodi:nodetypes="sssssccccccccccccccccc" />
    <path
       style="fill:#00314e;fill-opacity:1;stroke:#000000;stroke-width:0.30000001;stroke-miterlimit:4;stroke-opacity:1;stroke-dasharray:none"
       d="m 5.15,1.15 c -1.089475,0 -1.96875,0.647215 -1.96875,1.46875 0,0.821535 0.879275,1.5 1.96875,1.5 1.089475,0 1.96875,-0.678465 1.96875,-1.5 C 7.11875,1.797215 6.239475,1.15 5.15,1.15 z m -3.40625,3.96875 -3.59375,4 1.43750001,0 L 2.9,5.43125 l 0.75,2.6875 -3.49999999,4 3.19801999,0 0.30198,3 1,0 -0.288676,-3 1.788676,0 -0.34375,3 1,0 0.34375,-3 3,0 -3.5,-4 L 7.36875,5.4 l 3.34375,3.71875 1.4375,0 -3.59375,-4 z"
       id="path3057-2"
       inkscape:connector-curvature="0"
       sodipodi:nodetypes="sssssccccccccccccccccccccc" />
    <path
       style="fill:#dbe0e3;fill-opacity:1;stroke:#000000;stroke-width:0.33759286999999999;stroke-miterlimit:4;stroke-opacity:1;stroke-dasharray:none"
       d="m 11.15,5.6687964 c -1.3763866,0 -2.4921682,0.8530997 -2.4921682,1.9054513 0,1.0523517 1.1157816,1.905452 2.4921682,1.905452 1.376387,0 2.492169,-0.8531003 2.492169,-1.905452 0,-1.0523516 -1.115782,-1.9054513 -2.492169,-1.9054513 z M 5.1687964,10.75 l 0,1.905451 4.9843366,-0.63515 -3.4890357,3.810903 8.9718057,0 -3.489036,-3.810903 4.984337,0.63515 0,-1.905451 z"
       id="path3968"
       inkscape:connector-curvature="0"
       sodipodi:nodetypes="sssssccccccccc" />
  </g>
</svg>
