<?xml version="1.0" encoding="UTF-8" standalone="no"?>
<!-- Created with Inkscape (http://www.inkscape.org/) -->

<svg
   xmlns:dc="http://purl.org/dc/elements/1.1/"
   xmlns:cc="http://creativecommons.org/ns#"
   xmlns:rdf="http://www.w3.org/1999/02/22-rdf-syntax-ns#"
   xmlns:svg="http://www.w3.org/2000/svg"
   xmlns="http://www.w3.org/2000/svg"
   xmlns:sodipodi="http://sodipodi.sourceforge.net/DTD/sodipodi-0.dtd"
   xmlns:inkscape="http://www.inkscape.org/namespaces/inkscape"
   width="16px"
   height="16px"
   id="svg2985"
   version="1.1"
   inkscape:version="0.48.4 r9939"
   sodipodi:docname="groupLeader16.svg"
   inkscape:export-filename="/home/harald/NetBeansProjects/JMAdmin/artwork/groupLeader16.png"
   inkscape:export-xdpi="90"
   inkscape:export-ydpi="90">
  <defs
     id="defs2987" />
  <sodipodi:namedview
     id="base"
     pagecolor="#ffffff"
     bordercolor="#666666"
     borderopacity="1.0"
     inkscape:pageopacity="0.0"
     inkscape:pageshadow="2"
     inkscape:zoom="50.5"
     inkscape:cx="8.5712781"
     inkscape:cy="8.0990422"
     inkscape:current-layer="layer2"
     showgrid="true"
     inkscape:grid-bbox="true"
     inkscape:document-units="px"
     inkscape:snap-grids="true"
     inkscape:window-width="1280"
     inkscape:window-height="977"
     inkscape:window-x="0"
     inkscape:window-y="281"
     inkscape:window-maximized="1"
     gridtolerance="10"
     inkscape:snap-global="true"
     inkscape:snap-bbox="true"
     inkscape:snap-nodes="true"
     inkscape:bbox-nodes="true">
    <inkscape:grid
       type="xygrid"
       id="grid2993"
       empspacing="8"
       visible="true"
       enabled="true"
       snapvisiblegridlinesonly="false"
       empcolor="#00009d"
       empopacity="0.47058824"
       spacingx="0.5px"
       spacingy="0.5px" />
  </sodipodi:namedview>
  <metadata
     id="metadata2990">
    <rdf:RDF>
      <cc:Work
         rdf:about="">
        <dc:format>image/svg+xml</dc:format>
        <dc:type
           rdf:resource="http://purl.org/dc/dcmitype/StillImage" />
        <dc:title></dc:title>
      </cc:Work>
    </rdf:RDF>
  </metadata>
  <g
     inkscape:groupmode="layer"
     id="layer2"
     inkscape:label="Layer"
     style="display:inline">
    <path
       style="fill:#6994ac;fill-opacity:1;stroke:#171717;stroke-width:0.30000001;stroke-miterlimit:4;stroke-opacity:1;stroke-dasharray:none"
       d="m 6.65,0.15058235 c -0.8799673,-0.0207228 -1.9677547,0.5122456 -2,1.50000005 0.038261,1.0270882 1.1845067,1.5571752 2.09375,1.5 C 7.6153173,3.1417762 8.689449,2.5726971 8.65,1.5880824 8.5622695,0.63704655 7.5007479,0.13873021 6.65,0.15058235 z m -4,4.00000005 -1.99999999,2 0,1 3.49999999,1.5 0,5.4999996 1.5,0 0,-4.9999996 2,0 0,4.9999996 1.5,0 0,-8.9999996 c 0.32031,-0.017102 0.648768,4.822e-4 0.9375,0.15625 l 3.5625,1.34375 0,-1 -3.21875,-1.5 z m 0.5,1 1,0 0,2.5 -2.5,-1 z"
       id="path3913"
       inkscape:connector-curvature="0"
       sodipodi:nodetypes="cccccccccccccccccccccccccc" />
    <path
       inkscape:connector-curvature="0"
       style="fill:#00314e;fill-opacity:1;stroke:#353535;stroke-width:0.30000001;stroke-miterlimit:4;stroke-opacity:1;stroke-dasharray:none"
       d="m 9.85,7.3500002 c -1.380712,0 -2.5,0.6715729 -2.5,1.4999998 0,0.828427 1.119288,1.5 2.5,1.5 1.380712,0 2.5,-0.671573 2.5,-1.5 0,-0.8284269 -1.119288,-1.4999998 -2.5,-1.4999998 z m -6,3.9999998 0,1.5 3.5,0 0,2.5 1.5,0 0,-2.5 2,0 0,2.5 1.5,0 0,-2.5 3.5,0 0,-1.5 -12,0 z"
       id="path3968" />
  </g>
  <g
     inkscape:groupmode="layer"
     id="layer1"
     inkscape:label="Layer#1" />
</svg>
