<?xml version="1.0" encoding="UTF-8" standalone="no"?>
<!-- Created with Inkscape (http://www.inkscape.org/) -->

<svg
   xmlns:dc="http://purl.org/dc/elements/1.1/"
   xmlns:cc="http://creativecommons.org/ns#"
   xmlns:rdf="http://www.w3.org/1999/02/22-rdf-syntax-ns#"
   xmlns:svg="http://www.w3.org/2000/svg"
   xmlns="http://www.w3.org/2000/svg"
   xmlns:sodipodi="http://sodipodi.sourceforge.net/DTD/sodipodi-0.dtd"
   xmlns:inkscape="http://www.inkscape.org/namespaces/inkscape"
   width="16px"
   height="16px"
   id="svg3760"
   version="1.1"
   inkscape:version="0.48.4 r9939"
   sodipodi:docname="New document 3">
  <defs
     id="defs3762" />
  <sodipodi:namedview
     id="base"
     pagecolor="#ffffff"
     bordercolor="#666666"
     borderopacity="1.0"
     inkscape:pageopacity="0.0"
     inkscape:pageshadow="2"
     inkscape:zoom="50.5"
     inkscape:cx="8"
     inkscape:cy="8"
     inkscape:current-layer="layer1"
     showgrid="true"
     inkscape:grid-bbox="true"
     inkscape:document-units="px"
     inkscape:snap-grids="false"
     inkscape:window-width="1280"
     inkscape:window-height="977"
     inkscape:window-x="0"
     inkscape:window-y="281"
     inkscape:window-maximized="1">
    <inkscape:grid
       type="xygrid"
       id="grid3768"
       empspacing="4"
       visible="true"
       enabled="true"
       snapvisiblegridlinesonly="true" />
  </sodipodi:namedview>
  <metadata
     id="metadata3765">
    <rdf:RDF>
      <cc:Work
         rdf:about="">
        <dc:format>image/svg+xml</dc:format>
        <dc:type
           rdf:resource="http://purl.org/dc/dcmitype/StillImage" />
        <dc:title></dc:title>
      </cc:Work>
    </rdf:RDF>
  </metadata>
  <g
     inkscape:groupmode="layer"
     id="layer2"
     inkscape:label="Layer"
     style="display:none">
    <rect
       style="fill:#1cacff;fill-opacity:1;stroke:none"
       id="rect3855"
       width="233.48018"
       height="236.56387"
       x="-171.36565"
       y="-116.15859" />
  </g>
  <g
     id="layer1"
     inkscape:label="Layer 1"
     inkscape:groupmode="layer">
    <path
       sodipodi:nodetypes="sssssssssccssssssccsscccsssssss"
       inkscape:connector-curvature="0"
       id="path3857"
       d="M 6.4512472,13.708794 C 5.7100485,13.509206 5.0108435,13.050394 4.0663421,12.14384 3.3266804,11.433895 2.6958372,10.564519 2.4548643,9.923037 2.1403228,9.0857098 2.2208448,8.1370076 2.6607202,7.4976712 3.2324039,6.6667574 4.1225538,6.1868296 5.5771053,5.9252908 6.062611,5.8379937 6.4140918,5.6752602 6.5434078,5.4778995 6.5978397,5.3948251 6.746996,5.0750317 6.8748662,4.7672468 7.1411007,4.1264173 7.3413654,3.8868626 7.8174798,3.6396999 8.4910561,3.2900299 9.4561813,3.4638548 10.263754,4.080289 c 0.158097,0.1206785 0.310293,0.2194148 0.338212,0.2194148 L 13.240167,1.6969203 C 13.355054,1.5639872 13.119012,1.3583472 13.037003,1.2734848 12.828508,1.0577377 13.21896,0.7044358 13.400689,0.92106944 13.653162,1.2220365 13.858621,1.0366619 13.599702,0.77774251 13.381665,0.55970548 13.789658,0.28039525 13.978284,0.46807446 c 0.09342,0.0929481 0.21314,0.0769744 0.402851,-0.10664119 0.434787,-0.42081816 0.389457,-0.30985346 0.979009,0.28875827 0.547816,0.55623366 0.680026,0.60055496 0.374169,0.93594346 -0.317287,0.382823 -0.222505,0.3700016 -0.05948,0.5489738 0.138494,0.1984639 -0.17855,0.5553579 -0.388365,0.3293971 -0.25567,-0.2753431 -0.403838,-0.067838 -0.149151,0.1813088 0.216837,0.2121199 -0.168849,0.5802194 -0.38286,0.3662077 -0.296317,-0.327705 -0.447231,-0.093954 -0.461453,-0.095405 l -2.553286,2.5226184 0.270272,0.3916893 c 0.43224,0.6264197 0.592743,1.0607439 0.59355,1.6061579 0.0011,0.7686666 -0.356463,1.3510606 -0.995161,1.6207395 -0.833179,0.3517953 -1.124674,0.5075941 -1.21898,0.6515236 C 10.332,9.7969421 10.192998,10.277912 10.0805,10.778168 9.8482133,11.811107 9.6143092,12.340319 9.1636811,12.852492 8.414191,13.704343 7.502991,13.992005 6.4512472,13.708794 z"
       style="fill:#958342;fill-opacity:1" />
    <path
       style="fill:#6c5400;fill-opacity:1"
       d="M 6.4592959,13.721166 C 5.7180973,13.521578 5.0188928,13.062766 4.0743913,12.156212 3.3347297,11.446267 2.7038865,10.576891 2.4629135,9.935409 2.1483721,9.0980818 2.2288941,8.1493796 2.6687694,7.5100433 3.2404531,6.6791294 4.130603,6.1992016 5.5851541,5.9376628 6.0706597,5.8503654 6.4221406,5.6876322 6.5514566,5.4902716 6.6058884,5.4071974 6.7550448,5.0874037 6.8829149,4.7796187 7.1491495,4.1387891 7.3494141,3.8992343 7.8255285,3.6520721 8.4991049,3.3024022 9.46423,3.4762271 10.271803,4.092661 10.4299,4.2133393 10.582096,4.312076 10.610015,4.312076 L 13.248216,1.709292 C 13.363103,1.576359 13.127061,1.3707191 13.045052,1.2858571 12.836557,1.0701099 13.227009,0.71680794 13.408737,0.93344171 13.661211,1.2344083 13.86667,1.0490338 13.607751,0.79011478 13.389714,0.57207775 13.797707,0.29276732 13.986333,0.48044659 c 0.09342,0.092948 0.21314,0.0769746 0.402851,-0.10664125 0.434787,-0.42081816 0.389457,-0.30985346 0.979009,0.28875853 0.547816,0.55623363 0.680026,0.60055443 0.374169,0.93594313 -0.317287,0.3828228 -0.222505,0.3700017 -0.05948,0.5489741 0.138494,0.1984633 -0.178551,0.5553573 -0.388365,0.3293971 C 15.038844,2.2015346 14.890676,2.40904 15.145363,2.658187 15.3622,2.8703066 14.976514,3.2384064 14.762502,3.0243946 14.466187,2.6966895 14.315272,2.9304405 14.30105,2.9289891 l -2.553286,2.5226188 0.270272,0.3916888 c 0.43224,0.6264198 0.592743,1.060744 0.59355,1.6061581 0.0011,0.7686665 -0.356463,1.3510605 -0.995161,1.6207394 -0.83318,0.3517953 -1.124674,0.5075941 -1.218981,0.6515236 -0.05739,0.087596 -0.196398,0.5685662 -0.308895,1.0688222 -0.232287,1.032939 -0.466191,1.562151 -0.9168191,2.074324 -0.7494901,0.851851 -1.6606902,1.139513 -2.712434,0.856302 z M 8.0368071,12.883402 C 8.7548194,12.471587 9.105152,11.866939 9.4140205,10.506436 9.7174178,9.170029 9.9065944,8.9477798 11.130522,8.48985 12.012514,8.1598544 12.149991,7.2509761 11.460176,6.3104639 L 11.218619,5.9811193 10.314852,6.8830257 C 9.5061731,7.6900404 9.4110855,7.8092534 9.4110855,8.0160889 c 0,0.8028552 -1.0734774,1.3638719 -1.8136761,0.9478568 C 7.0384729,8.6498064 6.8065471,7.8477365 7.1156281,7.2978013 7.3044336,6.9618663 7.74026,6.6735439 8.0592504,6.6735439 c 0.2187367,0 0.3217197,-0.081441 1.1405931,-0.9020031 L 10.09999,4.8695377 9.8707641,4.6946989 C 8.8778904,3.9373972 7.9349691,4.0448678 7.5947794,4.9541068 7.1397111,6.1703864 6.9045716,6.3694882 5.5637045,6.6738984 4.5424295,6.9057531 4.0798807,7.1060359 3.628559,7.511813 2.5906689,8.4449652 2.8260938,9.7780098 4.311115,11.37664 c 0.7344441,0.790632 1.5931139,1.413416 2.2180379,1.608719 0.156375,0.04887 0.4816692,0.0906 0.7228763,0.09274 0.3662482,0.0032 0.4956431,-0.02886 0.7847779,-0.194693 z M 5.7162587,10.366763 C 5.150799,9.8004188 4.6881496,9.2935216 4.6881496,9.2403238 c 0,-0.1142384 0.3305036,-0.4751941 0.4351045,-0.4751941 0.088633,0 2.1962456,2.1014913 2.1962456,2.1898663 0,0.106243 -0.3560338,0.441484 -0.4688654,0.441484 -0.058447,0 -0.5689154,-0.463373 -1.1343756,-1.029717 z M 15.325334,1.4648896 C 15.483576,1.3029331 15.30031,1.1050787 15.118964,1.2895413 l -1.122025,1.1413083 c -0.170172,0.1730964 0.01315,0.3801646 0.189604,0.1995635 z M 14.811001,1.0287154 C 14.991208,0.85542171 14.806444,0.66577655 14.60783,0.85586884 L 13.473719,1.941314 c -0.180164,0.1724335 0.0048,0.3687434 0.151618,0.2275785 z"
       id="path3851"
       inkscape:connector-curvature="0"
       sodipodi:nodetypes="sssssssssccssssssccsscccssssssssssscsssssscssssssssssssssssssssssss" />
  </g>
</svg>
