<?xml version="1.0" encoding="UTF-8" standalone="no"?>
<!-- Created with Inkscape (http://www.inkscape.org/) -->

<svg
   xmlns:dc="http://purl.org/dc/elements/1.1/"
   xmlns:cc="http://creativecommons.org/ns#"
   xmlns:rdf="http://www.w3.org/1999/02/22-rdf-syntax-ns#"
   xmlns:svg="http://www.w3.org/2000/svg"
   xmlns="http://www.w3.org/2000/svg"
   xmlns:sodipodi="http://sodipodi.sourceforge.net/DTD/sodipodi-0.dtd"
   xmlns:inkscape="http://www.inkscape.org/namespaces/inkscape"
   width="16px"
   height="16px"
   id="svg3760"
   version="1.1"
   inkscape:version="0.48.4 r9939"
   sodipodi:docname="twoPianos.svg"
   inkscape:export-filename="/home/harald/NetBeansProjects/JMAdmin/artwork/twoPianos.png"
   inkscape:export-xdpi="90"
   inkscape:export-ydpi="90">
  <defs
     id="defs3762" />
  <sodipodi:namedview
     id="base"
     pagecolor="#ffffff"
     bordercolor="#666666"
     borderopacity="1.0"
     inkscape:pageopacity="0.0"
     inkscape:pageshadow="2"
     inkscape:zoom="40.783727"
     inkscape:cx="7.983268"
     inkscape:cy="9.7815882"
     inkscape:current-layer="layer1"
     showgrid="true"
     inkscape:grid-bbox="true"
     inkscape:document-units="px"
     inkscape:snap-grids="false"
     inkscape:window-width="1280"
     inkscape:window-height="977"
     inkscape:window-x="0"
     inkscape:window-y="281"
     inkscape:window-maximized="1">
    <inkscape:grid
       type="xygrid"
       id="grid3768"
       empspacing="4"
       visible="true"
       enabled="true"
       snapvisiblegridlinesonly="true" />
  </sodipodi:namedview>
  <metadata
     id="metadata3765">
    <rdf:RDF>
      <cc:Work
         rdf:about="">
        <dc:format>image/svg+xml</dc:format>
        <dc:type
           rdf:resource="http://purl.org/dc/dcmitype/StillImage" />
        <dc:title></dc:title>
      </cc:Work>
    </rdf:RDF>
  </metadata>
  <g
     inkscape:groupmode="layer"
     id="layer2"
     inkscape:label="Layer"
     style="display:none">
    <rect
       style="fill:#1cacff;fill-opacity:1;stroke:none"
       id="rect3855"
       width="233.48018"
       height="236.56387"
       x="-171.36565"
       y="-116.15859" />
  </g>
  <g
     id="layer1"
     inkscape:label="Layer 1"
     inkscape:groupmode="layer">
    <path
       style="fill:#a68200;fill-opacity:1;stroke:#675000;stroke-width:0.49674988;stroke-miterlimit:4;stroke-opacity:1;stroke-dasharray:none"
       d="M 7.0731903,13.85688 C 6.1600259,13.68619 5.2188526,13.177487 4.6602937,12.552712 3.944033,11.75154 3.7314074,11.148917 3.7406014,9.9461159 3.7531533,8.3040179 4.1110114,7.2923879 5.2688466,5.6259066 5.5051651,5.2857723 5.7359301,4.891721 5.7816585,4.7502376 5.9789201,4.1399058 5.7971396,3.1215751 5.2352775,1.689461 4.8134995,0.61439794 4.7551935,0.2830475 4.9877987,0.2830475 c 0.1530686,0 7.3236893,3.703511 7.5800653,3.9149814 0.122285,0.1008672 0.137361,0.1534363 0.07024,0.2448756 C 12.533573,4.5852733 12.328742,4.6283635 11.283922,4.727782 10.161521,4.8345831 9.0821743,5.0802359 8.3220537,5.4018862 7.8256634,5.6119368 7.5743507,5.773455 7.2048412,6.119917 6.9426259,6.3657758 6.7280862,6.5963011 6.7280862,6.6321956 c 0,0.036814 0.1110681,0.048066 0.2548027,0.025815 1.6839759,-0.2606884 2.9344874,0.056471 4.0589881,1.0294527 0.945392,0.8180106 1.297473,1.6058719 1.234855,2.7632697 -0.0402,0.74293 -0.226127,1.255227 -0.658747,1.815034 -1.002147,1.296771 -2.7833457,1.92036 -4.5447924,1.591111 z m 2.1216579,-1.170012 c 0.214027,-0.08228 0.4490892,-0.196212 0.5223617,-0.253183 0.1247272,-0.09698 0.1199105,-0.125608 -0.075537,-0.44897 C 9.4431014,11.656184 9.4310031,11.578375 9.393715,10.390054 9.3607459,9.3394604 9.4348776,9.1313522 9.236913,9.1407772 9.0598047,9.1492163 9.1130725,9.3391123 9.0801117,10.386922 c -0.025545,0.812031 -0.073169,1.297122 -0.1367062,1.392478 -0.1953636,0.293198 -0.4866833,0.426218 -0.9334304,0.426218 -0.3708362,0 -0.2997311,-0.01092 -0.5572098,-0.213511 C 6.532643,11.671335 7.4978846,9.2817662 6.7940387,9.12097 6.6771636,9.1017532 6.661282,9.2347112 6.6372368,10.433685 c -0.024871,1.240104 -0.03918,1.352168 -0.2031565,1.590546 -0.222842,0.323962 -0.2210026,0.355251 0.029172,0.496086 0.6915228,0.389289 1.9522551,0.466159 2.7315968,0.166551 z m -3.5335633,-1.12667 c 0.026172,-0.05859 0.047583,-0.650652 0.047583,-1.315667 0,-1.3624487 0.059164,-1.5835187 0.4852886,-1.8133 0.2029702,-0.1094489 0.3520245,-0.1340483 0.6840422,-0.1128911 0.3689341,0.023513 0.4587619,0.059154 0.6860077,0.2721972 0.4621904,0.3492332 0.2614857,0.9314257 0.2614857,1.4194109 0,1.217763 0.024341,1.387361 0.1991084,1.387361 0.098823,0 0.2119573,-0.190046 0.186319,-0.31298 -0.00658,-0.03163 -0.00779,-0.553625 -0.00274,-1.160007 C 8.2628839,9.2258661 7.97094,9.0337913 8.5220481,8.5602996 8.788667,8.3312306 8.871823,8.298788 9.192349,8.298788 c 0.4363267,0 0.7512182,0.1266931 0.954099,0.3838718 0.129652,0.1643514 0.153898,0.3580494 0.188043,1.5021842 0.04743,1.5889 0.12793,1.789713 0.46819,1.16779 C 11.507974,10.063521 10.801806,8.4618216 9.2539839,7.8397624 8.861767,7.6821366 8.7075989,7.6595976 8.0216731,7.6595976 c -0.6870606,0 -0.8397793,0.022409 -1.2350211,0.1812315 -1.2566977,0.5049827 -2.0231353,1.7062432 -1.7958727,2.8147259 0.1523623,0.743154 0.5206601,1.240079 0.6704792,0.904643 z m 9.3541321,1.695901 c -0.09507,-0.08909 -0.218332,-0.210338 -0.273932,-0.269437 -0.0843,-0.08961 -0.293716,-0.107452 -1.260948,-0.107452 -0.637921,0 -1.179406,-0.01679 -1.203301,-0.03734 -0.02389,-0.02053 0.08554,-0.240289 0.243208,-0.488353 l 0.286655,-0.451027 0.972187,-0.03369 c 0.752162,-0.02605 0.980679,-0.05568 1.009719,-0.130891 0.02064,-0.05346 0.11892,-0.167134 0.218392,-0.252596 0.243973,-0.209613 0.580014,-0.202067 0.821125,0.01844 0.176257,0.161194 0.190069,0.225244 0.190069,0.881501 0,0.691888 -0.0048,0.711303 -0.219975,0.870242 -0.279773,0.206758 -0.562986,0.206968 -0.783199,6.07e-4 z"
       id="path4699"
       inkscape:connector-curvature="0"
       sodipodi:nodetypes="ssssssssssssssssssssssssssccsssscsssccscccsssssssscccsscscsssssscc" />
  </g>
</svg>
