<?xml version="1.0" encoding="UTF-8" standalone="no"?>
<!-- Created with Inkscape (http://www.inkscape.org/) -->

<svg
   xmlns:dc="http://purl.org/dc/elements/1.1/"
   xmlns:cc="http://creativecommons.org/ns#"
   xmlns:rdf="http://www.w3.org/1999/02/22-rdf-syntax-ns#"
   xmlns:svg="http://www.w3.org/2000/svg"
   xmlns="http://www.w3.org/2000/svg"
   xmlns:sodipodi="http://sodipodi.sourceforge.net/DTD/sodipodi-0.dtd"
   xmlns:inkscape="http://www.inkscape.org/namespaces/inkscape"
   width="16px"
   height="16px"
   id="svg3760"
   version="1.1"
   inkscape:version="0.48.4 r9939"
   sodipodi:docname="horn.svg"
   inkscape:export-filename="/home/harald/NetBeansProjects/JMAdmin/artwork/twoPianos.png"
   inkscape:export-xdpi="90"
   inkscape:export-ydpi="90">
  <defs
     id="defs3762" />
  <sodipodi:namedview
     id="base"
     pagecolor="#ffffff"
     bordercolor="#666666"
     borderopacity="1.0"
     inkscape:pageopacity="0.0"
     inkscape:pageshadow="2"
     inkscape:zoom="50.5"
     inkscape:cx="8"
     inkscape:cy="8"
     inkscape:current-layer="layer1"
     showgrid="true"
     inkscape:grid-bbox="true"
     inkscape:document-units="px"
     inkscape:snap-grids="false"
     inkscape:window-width="1280"
     inkscape:window-height="977"
     inkscape:window-x="0"
     inkscape:window-y="281"
     inkscape:window-maximized="1">
    <inkscape:grid
       type="xygrid"
       id="grid3768"
       empspacing="4"
       visible="true"
       enabled="true"
       snapvisiblegridlinesonly="true" />
  </sodipodi:namedview>
  <metadata
     id="metadata3765">
    <rdf:RDF>
      <cc:Work
         rdf:about="">
        <dc:format>image/svg+xml</dc:format>
        <dc:type
           rdf:resource="http://purl.org/dc/dcmitype/StillImage" />
        <dc:title></dc:title>
      </cc:Work>
    </rdf:RDF>
  </metadata>
  <g
     inkscape:groupmode="layer"
     id="layer2"
     inkscape:label="Layer"
     style="display:none">
    <rect
       style="fill:#1cacff;fill-opacity:1;stroke:none"
       id="rect3855"
       width="233.48018"
       height="236.56387"
       x="-171.36565"
       y="-116.15859" />
  </g>
  <g
     id="layer1"
     inkscape:label="Layer 1"
     inkscape:groupmode="layer">
    <path
       style="fill:#a68200;fill-opacity:1;stroke:#675000;stroke-width:0.5;stroke-miterlimit:4;stroke-opacity:1;stroke-dasharray:none"
       d="M 6.6375467,14.035098 C 5.7243823,13.864408 4.783209,13.355705 4.2246501,12.73093 3.5083894,11.929758 3.2957638,11.327135 3.3049578,10.124334 3.3175097,8.4822357 3.6753678,7.4706057 4.833203,5.8041244 5.0695215,5.4639901 5.3002865,5.0699388 5.3460149,4.9284554 5.5432765,4.3181236 5.361496,3.2997929 4.7996339,1.8676788 4.3778559,0.79261576 4.3195499,0.46126532 4.5521551,0.46126532 c 0.1530686,0 7.3236889,3.70351098 7.5800649,3.91498138 0.122285,0.1008672 0.137361,0.1534363 0.07024,0.2448756 -0.104531,0.1423688 -0.309362,0.185459 -1.354182,0.2848775 C 9.7258774,5.0128009 8.6465307,5.2584537 7.8864101,5.580104 7.3900198,5.7901546 7.1387071,5.9516728 6.7691976,6.2981348 6.5069823,6.5439936 6.2924426,6.7745189 6.2924426,6.8104134 c 0,0.036814 0.1110681,0.048066 0.2548027,0.025815 1.6839759,-0.2606884 2.9344874,0.056471 4.0589877,1.0294527 0.945392,0.8180106 1.297473,1.6058719 1.234855,2.7632699 -0.0402,0.74293 -0.226127,1.255227 -0.658747,1.815034 -1.002147,1.296771 -2.7833453,1.92036 -4.5447943,1.591113 z M 10.367037,11.530852 C 10.877964,10.125119 10.374806,8.6180833 8.8183403,8.0179802 7.9398562,7.6792764 7.1214048,7.7151902 6.3510084,8.0190469 5.5016369,8.3540526 4.414098,9.0397643 4.5292202,10.522787 c 0.1151222,1.483023 1.6895661,2.566123 2.991259,2.594455 1.1926894,0.02596 2.4287262,-0.693211 2.8465578,-1.58639 z m 4.212736,1.903465 c -0.09507,-0.08909 -0.218332,-0.210338 -0.273932,-0.269437 -0.0843,-0.08961 -0.293716,-0.107452 -1.260948,-0.107452 -0.637921,0 -1.179406,-0.01679 -1.203301,-0.03734 -0.02389,-0.02053 0.08554,-0.240289 0.243208,-0.488353 l 0.286655,-0.451027 0.972187,-0.03369 c 0.752162,-0.02605 0.980679,-0.05568 1.009719,-0.130891 0.02064,-0.05346 0.11892,-0.167134 0.218392,-0.252596 0.243973,-0.209613 0.580014,-0.202067 0.821125,0.01844 0.176257,0.161194 0.190069,0.225244 0.190069,0.881501 0,0.691888 -0.0048,0.711303 -0.219975,0.870242 -0.279773,0.206758 -0.562986,0.206968 -0.783199,6.03e-4 z"
       id="path4699"
       inkscape:connector-curvature="0"
       sodipodi:nodetypes="sssssssssssssssssscsszsccsscscssssssc" />
  </g>
</svg>
