<?xml version="1.0" encoding="UTF-8" standalone="no"?>
<!-- Created with Inkscape (http://www.inkscape.org/) -->

<svg
   xmlns:dc="http://purl.org/dc/elements/1.1/"
   xmlns:cc="http://creativecommons.org/ns#"
   xmlns:rdf="http://www.w3.org/1999/02/22-rdf-syntax-ns#"
   xmlns:svg="http://www.w3.org/2000/svg"
   xmlns="http://www.w3.org/2000/svg"
   xmlns:sodipodi="http://sodipodi.sourceforge.net/DTD/sodipodi-0.dtd"
   xmlns:inkscape="http://www.inkscape.org/namespaces/inkscape"
   width="24"
   height="16"
   id="svg2985"
   version="1.1"
   inkscape:version="0.48.4 r9939"
   sodipodi:docname="lock24.svg"
   inkscape:export-filename="/home/harald/NetBeansProjects/phon/artwork/lock24.png"
   inkscape:export-xdpi="90"
   inkscape:export-ydpi="90">
  <defs
     id="defs2987" />
  <sodipodi:namedview
     id="base"
     pagecolor="#ffffff"
     bordercolor="#666666"
     borderopacity="1.0"
     inkscape:pageopacity="0.0"
     inkscape:pageshadow="2"
     inkscape:zoom="54.170354"
     inkscape:cx="15.521869"
     inkscape:cy="10.814885"
     inkscape:current-layer="layer2"
     showgrid="true"
     inkscape:grid-bbox="true"
     inkscape:document-units="px"
     inkscape:snap-grids="true"
     inkscape:window-width="1280"
     inkscape:window-height="977"
     inkscape:window-x="0"
     inkscape:window-y="281"
     inkscape:window-maximized="1"
     gridtolerance="10"
     inkscape:snap-global="true"
     inkscape:snap-bbox="true"
     inkscape:snap-nodes="true"
     inkscape:bbox-nodes="true">
    <inkscape:grid
       type="xygrid"
       id="grid2993"
       empspacing="8"
       visible="true"
       enabled="true"
       snapvisiblegridlinesonly="false"
       empcolor="#00009d"
       empopacity="0.47058824"
       spacingx="0.5px"
       spacingy="0.5px" />
  </sodipodi:namedview>
  <metadata
     id="metadata2990">
    <rdf:RDF>
      <cc:Work
         rdf:about="">
        <dc:format>image/svg+xml</dc:format>
        <dc:type
           rdf:resource="http://purl.org/dc/dcmitype/StillImage" />
        <dc:title />
      </cc:Work>
    </rdf:RDF>
  </metadata>
  <g
     id="layer1"
     inkscape:label="Layer 1"
     inkscape:groupmode="layer"
     style="display:none">
    <path
       style="fill:#00314e;fill-opacity:1;stroke:#000000;stroke-width:0.30000001;stroke-miterlimit:4;stroke-opacity:1;stroke-dasharray:none"
       d="M 8,1.03125 C 6.9105252,1.03125 6.03125,1.6784653 6.03125,2.5 6.03125,3.3215347 6.9105252,4 8,4 9.0894748,4 9.96875,3.3215347 9.96875,2.5 9.96875,1.6784653 9.0894748,1.03125 8,1.03125 z M 4.59375,5 1,9 2.4375,9 5.75,5.3125 6.5,8 3,12 6.1980198,12 6.5,15 7.5,15 7.2113243,12 9,12 l -0.34375,3 1,0 L 10,12 13,12 9.5,8 10.21875,5.28125 13.5625,9 15,9 11.40625,5 z"
       id="path3057"
       inkscape:connector-curvature="0"
       sodipodi:nodetypes="sssssccccccccccccccccccccc" />
    <rect
       style="fill:#0e232e;fill-opacity:1;stroke:none"
       id="rect3059"
       width="1.5629822"
       height="6.8313198"
       x="25.60841"
       y="6.6982603"
       transform="matrix(1,0,-0.26692926,0.96371613,0,0)" />
  </g>
  <g
     inkscape:groupmode="layer"
     id="layer2"
     inkscape:label="Layer"
     style="display:inline">
    <g
       id="g3815">
      <path
         sodipodi:nodetypes="cccssssssssc"
         inkscape:connector-curvature="0"
         id="path3109"
         d="M 13.666253,11.861846 C 13.055434,11.551921 13.005717,11.308834 13.000755,8.6080105 12.996155,6.0781668 12.994828,5.6905009 13.5,5.2654199 13.996651,4.8475468 14.007928,5.2099141 14.087927,4.16147 14.181217,2.9389259 14.33097,2.4710688 14.84885,1.7842941 c 0.664828,-0.88164566 2.193263,-1.57966446 3.458952,-1.57966446 1.068125,0 2.453985,0.58095896 3.145795,1.31873086 0.646344,0.6892836 0.890167,1.3532929 0.957647,2.6079749 C 22.469384,5.2123089 22.677056,4.8106215 23,5 c 0.656411,0.38493 0.478875,0.8960621 0.4833,3.6786739 0.0058,3.6346921 0.549196,3.2791751 -5.066096,3.3143791 -3.520095,0.02207 -4.502329,-0.005 -4.750951,-0.131207 z"
         style="fill:#ffffff;fill-opacity:0.62962964" />
      <path
         style="fill:#153044;fill-opacity:1;stroke:#000000;stroke-width:0.20000000000000001;stroke-miterlimit:4;stroke-opacity:1;stroke-dasharray:none"
         d="m 14.689601,10.984444 c -0.478928,-0.269619 -0.517909,-0.481092 -0.5218,-2.8306675 -0.0036,-2.2008329 -0.0036,-2.2008329 0.392486,-2.5706314 0.389412,-0.3635279 0.397214,-0.3855364 0.459939,-1.2976284 0.07315,-1.06355 0.190564,-1.4705615 0.596621,-2.0680199 0.521276,-0.7669861 1.719684,-1.37422646 2.71208,-1.37422646 0.837491,0 1.92411,0.50540426 2.466542,1.14722766 0.506782,0.5996411 0.697958,1.1772948 0.750867,2.2688031 0.04558,0.9403909 0.06441,1.0100148 0.317618,1.1747643 0.514674,0.3348691 0.519485,0.3604565 0.522955,2.7811845 0.0045,3.1619941 0.43061,2.8527131 -3.972202,2.8833371 -2.760021,0.01921 -3.530167,-0.0044 -3.725106,-0.114147 z M 20.312312,4.5182183 C 20.360905,3.2280808 19.893961,2.4918986 18.827235,2.1768132 17.977773,1.9259021 16.863485,2.35945 16.487089,3.0873191 c -0.204686,0.3958181 -0.307259,1.238253 -0.220892,1.8141852 0.07055,0.4704732 0.07055,0.4704732 2.043307,0.4425691 1.972758,-0.027911 1.972758,-0.027911 2.002808,-0.8258551 z"
         id="path3879"
         inkscape:connector-curvature="0" />
    </g>
  </g>
</svg>
