<?xml version="1.0" encoding="UTF-8" standalone="no"?>
<!-- Created with Inkscape (http://www.inkscape.org/) -->

<svg
   xmlns:dc="http://purl.org/dc/elements/1.1/"
   xmlns:cc="http://creativecommons.org/ns#"
   xmlns:rdf="http://www.w3.org/1999/02/22-rdf-syntax-ns#"
   xmlns:svg="http://www.w3.org/2000/svg"
   xmlns="http://www.w3.org/2000/svg"
   xmlns:sodipodi="http://sodipodi.sourceforge.net/DTD/sodipodi-0.dtd"
   xmlns:inkscape="http://www.inkscape.org/namespaces/inkscape"
   width="16"
   height="16"
   id="svg2985"
   version="1.1"
   inkscape:version="0.48.4 r9939"
   sodipodi:docname="newAddress32.svg"
   inkscape:export-filename="/home/harald/NetBeansProjects/JMAdmin/artwork/newAddress32.png"
   inkscape:export-xdpi="180"
   inkscape:export-ydpi="180">
  <defs
     id="defs2987" />
  <sodipodi:namedview
     id="base"
     pagecolor="#ffffff"
     bordercolor="#666666"
     borderopacity="1.0"
     inkscape:pageopacity="0.0"
     inkscape:pageshadow="2"
     inkscape:zoom="25.137957"
     inkscape:cx="11.418077"
     inkscape:cy="8.4548424"
     inkscape:current-layer="layer1"
     showgrid="true"
     inkscape:grid-bbox="true"
     inkscape:document-units="px"
     inkscape:window-width="1280"
     inkscape:window-height="977"
     inkscape:window-x="0"
     inkscape:window-y="281"
     inkscape:window-maximized="1"
     inkscape:snap-bbox="true">
    <inkscape:grid
       type="xygrid"
       id="grid3012"
       empspacing="4"
       visible="true"
       enabled="true"
       snapvisiblegridlinesonly="true"
       spacingx="0.5px"
       spacingy="0.5px" />
  </sodipodi:namedview>
  <metadata
     id="metadata2990">
    <rdf:RDF>
      <cc:Work
         rdf:about="">
        <dc:format>image/svg+xml</dc:format>
        <dc:type
           rdf:resource="http://purl.org/dc/dcmitype/StillImage" />
        <dc:title></dc:title>
      </cc:Work>
    </rdf:RDF>
  </metadata>
  <g
     id="layer1"
     inkscape:label="Layer 1"
     inkscape:groupmode="layer"
     transform="translate(0,-16)">
    <path
       style="fill:#00314e;fill-opacity:1;stroke:#000000;stroke-opacity:1;stroke-width:0.3;stroke-miterlimit:4;stroke-dasharray:none"
       d="M 8 1 C 7.7040168 0.99508171 7.4068722 1.0335227 7.125 1.09375 C 6.9086394 1.1399795 6.7042969 1.2009517 6.5 1.28125 C 4.7584735 1.9023751 3.5 3.5451523 3.5 5.5 C 3.5 7.6154665 4.9703396 9.3624847 6.9375 9.84375 C 5.2686127 9.9146809 3.5509836 10.163629 2.15625 11.09375 C 0.8570985 11.958555 0.46178115 13.555009 0.5 15 L 15.5 15 C 15.538227 13.555009 15.142901 11.958555 13.84375 11.09375 C 12.454337 10.16315 10.730505 9.9148147 9.0625 9.84375 C 11.02966 9.3624847 12.5 7.6154665 12.5 5.5 C 12.5 3.4754202 11.151736 1.7840068 9.3125 1.21875 C 9.1077975 1.1558383 8.903494 1.0958435 8.6875 1.0625 C 8.6773402 1.0609316 8.6664321 1.0640003 8.65625 1.0625 C 8.4372687 1.0271499 8.2225039 0.99913925 8 1 z "
       transform="translate(0,16)"
       id="path3014" />
    <rect
       style="fill:#ffffff;fill-opacity:1;stroke:none"
       id="rect2987"
       width="4"
       height="1"
       x="6"
       y="5"
       transform="translate(0,16)" />
    <rect
       style="fill:#ffffff;fill-opacity:1;stroke:none"
       id="rect3757"
       width="1"
       height="4"
       x="7.5"
       y="3.5"
       transform="translate(0,16)" />
  </g>
</svg>
