<?xml version="1.0" encoding="UTF-8" standalone="no"?>
<!-- Created with Inkscape (http://www.inkscape.org/) -->

<svg
   xmlns:dc="http://purl.org/dc/elements/1.1/"
   xmlns:cc="http://creativecommons.org/ns#"
   xmlns:rdf="http://www.w3.org/1999/02/22-rdf-syntax-ns#"
   xmlns:svg="http://www.w3.org/2000/svg"
   xmlns="http://www.w3.org/2000/svg"
   xmlns:sodipodi="http://sodipodi.sourceforge.net/DTD/sodipodi-0.dtd"
   xmlns:inkscape="http://www.inkscape.org/namespaces/inkscape"
   width="16"
   height="16"
   id="svg2985"
   version="1.1"
   inkscape:version="0.48.4 r9939"
   sodipodi:docname="noChairs16x16.svg"
   inkscape:export-filename="/home/harald/NetBeansProjects/phon/artwork/noChairs16x16.png"
   inkscape:export-xdpi="90"
   inkscape:export-ydpi="90">
  <defs
     id="defs2987" />
  <sodipodi:namedview
     id="base"
     pagecolor="#ffffff"
     bordercolor="#666666"
     borderopacity="1.0"
     inkscape:pageopacity="0.0"
     inkscape:pageshadow="2"
     inkscape:zoom="33.317575"
     inkscape:cx="9.6893814"
     inkscape:cy="9.3367722"
     inkscape:current-layer="layer1"
     showgrid="true"
     inkscape:grid-bbox="true"
     inkscape:document-units="px"
     inkscape:snap-grids="false"
     inkscape:window-width="1280"
     inkscape:window-height="977"
     inkscape:window-x="0"
     inkscape:window-y="281"
     inkscape:window-maximized="1"
     gridtolerance="10"
     inkscape:snap-global="true"
     inkscape:snap-bbox="true"
     inkscape:snap-nodes="true">
    <inkscape:grid
       type="xygrid"
       id="grid2993"
       empspacing="8"
       visible="true"
       enabled="true"
       snapvisiblegridlinesonly="false"
       empcolor="#00009d"
       empopacity="0.47058824"
       spacingx="0.5px"
       spacingy="0.5px" />
  </sodipodi:namedview>
  <metadata
     id="metadata2990">
    <rdf:RDF>
      <cc:Work
         rdf:about="">
        <dc:format>image/svg+xml</dc:format>
        <dc:type
           rdf:resource="http://purl.org/dc/dcmitype/StillImage" />
        <dc:title></dc:title>
      </cc:Work>
    </rdf:RDF>
  </metadata>
  <g
     id="layer1"
     inkscape:label="Layer 1"
     inkscape:groupmode="layer">
    <path
       style="fill:#6c92aa;fill-opacity:1;stroke:#000000;stroke-width:0.2;stroke-miterlimit:4;stroke-opacity:1;stroke-dasharray:none"
       d="m 0.59999996,3.9402554 0,9.9999996 1.00000004,0 0,-3.9999996 3,0 0,3.9999996 1,0 0,-3.9999996 1,0 0,-1 -5,0 0,-5 -1.00000004,0 z"
       id="rect3754"
       inkscape:connector-curvature="0" />
    <path
       style="fill:#69879b;fill-opacity:1;stroke:#000000;stroke-width:0.2;stroke-miterlimit:4;stroke-opacity:1;stroke-dasharray:none"
       d="m 7.7096736,0.4293047 0,2 1,0 0,3 -1.5,0 0,1 0.5,0 0,4.0000003 1,0 0,-4.0000003 4.0000004,0 0,4.0000003 1,0 0,-4.0000003 0.5,0 0,-1 -1.5,0 0,-3 1,0 0,-2 -6.0000004,0 z m 2.0000004,2 2,0 0,3 -2,0 0,-3 z"
       id="rect2984"
       inkscape:connector-curvature="0" />
    <path
       style="fill:#2a4150;fill-opacity:1;stroke:#000000;stroke-width:0.25591815;stroke-miterlimit:4;stroke-opacity:1;stroke-dasharray:none"
       d="M -3.28125 -4.15625 L -4.125 -3.3125 L 7.0625 7.875 L -4.125 19.09375 L -3.28125 19.9375 L 7.9375 8.75 L 19.125 19.9375 L 19.96875 19.09375 L 8.75 7.875 L 19.96875 -3.3125 L 19.125 -4.15625 L 7.9375 7.0625 L -3.28125 -4.15625 z "
       id="rect2985" />
  </g>
</svg>
