<?xml version="1.0" encoding="UTF-8" standalone="no"?>
<!-- Created with Inkscape (http://www.inkscape.org/) -->

<svg
   xmlns:dc="http://purl.org/dc/elements/1.1/"
   xmlns:cc="http://creativecommons.org/ns#"
   xmlns:rdf="http://www.w3.org/1999/02/22-rdf-syntax-ns#"
   xmlns:svg="http://www.w3.org/2000/svg"
   xmlns="http://www.w3.org/2000/svg"
   xmlns:sodipodi="http://sodipodi.sourceforge.net/DTD/sodipodi-0.dtd"
   xmlns:inkscape="http://www.inkscape.org/namespaces/inkscape"
   width="16px"
   height="16px"
   id="svg3760"
   version="1.1"
   inkscape:version="0.48.4 r9939"
   sodipodi:docname="pianoViolin.svg"
   inkscape:export-filename="/home/harald/NetBeansProjects/JMAdmin/artwork/pianoViolin.png"
   inkscape:export-xdpi="90"
   inkscape:export-ydpi="90">
  <defs
     id="defs3762" />
  <sodipodi:namedview
     id="base"
     pagecolor="#ffffff"
     bordercolor="#666666"
     borderopacity="1.0"
     inkscape:pageopacity="0.0"
     inkscape:pageshadow="2"
     inkscape:zoom="23.006985"
     inkscape:cx="1.1133198"
     inkscape:cy="10.000393"
     inkscape:current-layer="layer2"
     showgrid="true"
     inkscape:grid-bbox="true"
     inkscape:document-units="px"
     inkscape:snap-grids="false"
     inkscape:window-width="1280"
     inkscape:window-height="977"
     inkscape:window-x="0"
     inkscape:window-y="281"
     inkscape:window-maximized="1">
    <inkscape:grid
       type="xygrid"
       id="grid3768"
       empspacing="4"
       visible="true"
       enabled="true"
       snapvisiblegridlinesonly="true" />
  </sodipodi:namedview>
  <metadata
     id="metadata3765">
    <rdf:RDF>
      <cc:Work
         rdf:about="">
        <dc:format>image/svg+xml</dc:format>
        <dc:type
           rdf:resource="http://purl.org/dc/dcmitype/StillImage" />
        <dc:title></dc:title>
      </cc:Work>
    </rdf:RDF>
  </metadata>
  <g
     id="layer1"
     inkscape:label="Piano"
     inkscape:groupmode="layer"
     style="display:inline"
     sodipodi:insensitive="true">
    <path
       sodipodi:nodetypes="ccssssssc"
       inkscape:connector-curvature="0"
       id="path4462"
       d="M 14.528902,13.974737 4.2644775,14.004021 C 3.877511,14.002693 3.3479938,13.358597 3.3467134,12.982454 L 3.3115761,2.659744 C 3.3010588,-0.43007514 8.88862,-0.46132794 9.591989,2.2093221 c 0.798822,3.0330757 1.471941,3.5613567 3.483008,4.1410577 1.992928,0.574473 2.75992,0.704125 2.752146,2.243153 l -0.02363,4.6783202 c -0.004,0.787854 -0.653907,0.70377 -1.274609,0.702884 z"
       style="fill:#5e5739;fill-opacity:1" />
    <path
       style="fill:#544200;fill-opacity:1"
       d="m 14.604065,13.198051 0.02456,-4.6818992 c 0.0042,-0.790324 -0.874192,-0.830266 -1.815462,-1.120273 C 9.010964,6.2244158 9.256965,4.7815868 8.431334,2.5389978 7.7774768,0.76298356 4.4089234,1.0435063 4.4141291,2.6750477 l 0.029222,9.1587003 c 8.853e-4,0.275599 0.020445,0.383024 0.9894903,0.367648 1.1502143,-0.01825 0.7898669,1.082127 0.060719,1.079605 l -1.0286482,-0.0036 c -0.3869665,-0.0013 -1.1707164,0.007 -1.1683077,-1.472546 l 0.014971,-9.1952626 c 0.00503,-3.08983334 5.5770435,-3.12107224 6.2804135,-0.4504222 0.798821,3.0330756 1.47194,3.5613566 3.483007,4.1410576 1.992928,0.574473 2.75992,0.704125 2.752146,2.243154 l -0.02363,4.6783192 c -0.0051,1.013338 -1.205103,1.054531 -1.199446,-0.02369 z"
       id="path4460"
       inkscape:connector-curvature="0"
       sodipodi:nodetypes="ssssssssssssssss" />
    <rect
       style="fill:#9f8f56;fill-opacity:1;stroke:none"
       id="rect4464"
       width="11.806625"
       height="3.0899878"
       x="3.5856018"
       y="10.275471"
       ry="0.52494371" />
    <rect
       style="fill:#564c2e;fill-opacity:1;stroke:none"
       id="rect4478"
       width="0.73267329"
       height="1.4851485"
       x="4.0792079"
       y="10.712872"
       ry="0.36633664" />
    <rect
       ry="0.36633664"
       y="10.712872"
       x="6.1386137"
       height="1.4851485"
       width="0.73267329"
       id="rect4480"
       style="fill:#564c2e;fill-opacity:1;stroke:none" />
    <rect
       style="fill:#564c2e;fill-opacity:1;stroke:none"
       id="rect4482"
       width="0.73267329"
       height="1.4851485"
       x="8.1584158"
       y="10.693069"
       ry="0.36633664" />
    <rect
       ry="0.36633664"
       y="10.693069"
       x="10.158416"
       height="1.4851485"
       width="0.73267329"
       id="rect4484"
       style="fill:#564c2e;fill-opacity:1;stroke:none" />
    <rect
       style="fill:#564c2e;fill-opacity:1;stroke:none"
       id="rect4486"
       width="0.73267329"
       height="1.4851485"
       x="12.158416"
       y="10.732674"
       ry="0.36633664" />
    <rect
       ry="0.36633664"
       y="10.811882"
       x="14.178218"
       height="1.4851485"
       width="0.73267329"
       id="rect4488"
       style="fill:#564c2e;fill-opacity:1;stroke:none" />
  </g>
  <g
     inkscape:groupmode="layer"
     id="layer2"
     inkscape:label="Violin"
     style="display:inline">
    <path
       sodipodi:nodetypes="ssccscssscscccccscccsssssssccccscsscsssccscs"
       inkscape:connector-curvature="0"
       id="path5306"
       d="M 3.5638906,11.971921 C 3.1862419,11.699663 2.8854757,10.911178 2.745837,10.592401 2.5647329,10.178945 2.3505775,8.6962164 2.4731292,8.1568974 2.6064674,7.5700858 3.0760253,7.2223691 3.8915121,6.9870824 4.0977018,6.927585 4.565956,6.7159514 4.6541199,6.6082462 L 4.8144172,6.4124175 5.0334684,6.6688698 C 5.429814,7.1328783 5.956296,7.6057484 6.4558279,7.0509928 6.6810308,6.8008939 7.0171969,6.5267242 6.5445056,5.8290201 6.4031251,5.6203373 6.4390325,5.4418448 6.6549667,5.380605 6.7434649,5.3555135 6.9646514,5.1517982 7.1465082,4.9279159 7.5924932,4.3788666 7.9459991,4.1536068 8.4179181,4.1177495 8.8926509,4.0816727 9.3430534,4.251275 9.783511,4.6320298 10.02489,4.8406781 10.09884,4.871377 10.222458,4.8142425 10.44897,4.7095749 12.835789,2.6979398 12.864429,2.5875751 12.878241,2.5343786 12.786392,2.4109623 12.660349,2.3133355 12.407714,2.1176546 12.359987,1.9211518 12.524273,1.7531554 c 0.18129,-0.1853776 0.432094,-0.09128 0.53144,0.1993891 0.09109,0.2664996 0.197271,0.3397622 0.278301,0.192015 0.02752,-0.05021 -0.03675,-0.1715753 -0.153219,-0.2893683 C 12.9362,1.6078396 12.91637,1.41637 13.121445,1.282124 c 0.232013,-0.1518872 0.334144,-0.101352 0.465808,0.2304946 0.130523,0.3289692 0.266553,0.4169166 0.254261,0.1643723 -0.01363,-0.2798651 0.256515,-0.4463199 0.628658,-0.3873636 0.431784,0.068404 0.583561,0.2574175 0.607886,0.7570256 0.01896,0.389441 -0.167017,0.7642675 -0.363744,0.7331013 -0.144546,-0.022899 -0.125004,0.052313 0.06381,0.2456468 0.222266,0.2275882 0.160849,0.579849 -0.114118,0.6545933 -0.112188,0.03049 -0.225978,0.1468493 -0.262943,0.2688706 -0.08418,0.2778716 -0.411349,0.3387249 -0.559946,0.104143 -0.05588,-0.088213 -0.115735,-0.2028251 -0.133027,-0.2547187 -0.06765,-0.2029486 -0.550327,0.1226957 -1.635874,1.1036741 -0.906312,0.8190091 -1.111623,1.0458009 -1.077002,1.1897018 0.02353,0.09779 0.107209,0.4108076 0.185944,0.6955994 0.167491,0.6057871 0.136215,0.9787138 -0.124606,1.4854079 -0.164089,0.318777 -0.693264,0.771847 -1.1124285,0.952441 -0.1158357,0.04991 -0.2634863,0.157799 -0.3281018,0.239755 -0.125205,0.158801 -0.455311,0.192767 -0.530207,-1.2e-5 -0.1925617,-0.495636 -0.8679313,-0.301824 -1.1617379,0.131819 -0.178183,0.262988 -0.3191666,1.0006166 0.1634159,1.2451066 0.1642287,0.171553 0.1480673,0.324026 -0.046726,0.440948 -0.093898,0.05636 -0.2618131,0.287562 -0.373129,0.513775 -0.3013599,0.612396 -0.6979978,1.406562 -1.176481,1.591098 -0.9632782,0.07577 -2.1938883,-0.886976 -2.9272533,-1.415678 z"
       style="fill:#ebb800;fill-opacity:1;stroke:#614c00;stroke-width:0.88532381999999998;stroke-opacity:1;display:inline" />
  </g>
</svg>
