<?xml version="1.0" encoding="UTF-8" standalone="no"?>
<!-- Created with Inkscape (http://www.inkscape.org/) -->

<svg
   xmlns:dc="http://purl.org/dc/elements/1.1/"
   xmlns:cc="http://creativecommons.org/ns#"
   xmlns:rdf="http://www.w3.org/1999/02/22-rdf-syntax-ns#"
   xmlns:svg="http://www.w3.org/2000/svg"
   xmlns="http://www.w3.org/2000/svg"
   xmlns:sodipodi="http://sodipodi.sourceforge.net/DTD/sodipodi-0.dtd"
   xmlns:inkscape="http://www.inkscape.org/namespaces/inkscape"
   width="16px"
   height="16px"
   id="svg3760"
   version="1.1"
   inkscape:version="0.48.4 r9939"
   sodipodi:docname="recorder.svg"
   inkscape:export-filename="/home/harald/NetBeansProjects/JMAdmin/artwork/recorder.png"
   inkscape:export-xdpi="90"
   inkscape:export-ydpi="90">
  <defs
     id="defs3762" />
  <sodipodi:namedview
     id="base"
     pagecolor="#ffffff"
     bordercolor="#666666"
     borderopacity="1.0"
     inkscape:pageopacity="0.0"
     inkscape:pageshadow="2"
     inkscape:zoom="50.5"
     inkscape:cx="8.039604"
     inkscape:cy="8"
     inkscape:current-layer="layer1"
     showgrid="true"
     inkscape:grid-bbox="true"
     inkscape:document-units="px"
     inkscape:snap-grids="false"
     inkscape:window-width="1024"
     inkscape:window-height="1258"
     inkscape:window-x="1280"
     inkscape:window-y="0"
     inkscape:window-maximized="1">
    <inkscape:grid
       type="xygrid"
       id="grid3768"
       empspacing="4"
       visible="true"
       enabled="true"
       snapvisiblegridlinesonly="true" />
  </sodipodi:namedview>
  <metadata
     id="metadata3765">
    <rdf:RDF>
      <cc:Work
         rdf:about="">
        <dc:format>image/svg+xml</dc:format>
        <dc:type
           rdf:resource="http://purl.org/dc/dcmitype/StillImage" />
        <dc:title></dc:title>
      </cc:Work>
    </rdf:RDF>
  </metadata>
  <g
     inkscape:groupmode="layer"
     id="layer2"
     inkscape:label="Layer"
     style="display:none">
    <rect
       style="fill:#1cacff;fill-opacity:1;stroke:none"
       id="rect3855"
       width="233.48018"
       height="236.56387"
       x="-171.36565"
       y="-116.15859" />
  </g>
  <g
     id="layer1"
     inkscape:label="Layer 1"
     inkscape:groupmode="layer">
    <path
       style="fill:#000000"
       d="m 13.358796,-4.8280762 c -0.206878,-0.271234 -0.562204,-0.872692 -0.789611,-1.336571 l -0.413468,-0.8434206 0.347217,-0.2812794 c 0.21423,-0.1735462 0.575396,-0.2812808 0.94296,-0.2812808 0.47154,0 0.905095,-0.1891608 2.079558,-0.9073203 0.816098,-0.4990275 1.814739,-1.0997108 2.219201,-1.3348544 0.404464,-0.2351433 1.078485,-0.6376123 1.497825,-0.8943753 0.419342,-0.256764 1.135613,-0.689539 1.591716,-0.961723 0.456103,-0.272184 0.997783,-0.651045 1.203734,-0.841915 0.205954,-0.190869 0.681007,-0.524992 1.055677,-0.742494 0.37467,-0.217501 1.032457,-0.714158 1.46175,-1.103682 0.78467,-0.711978 1.87844,-1.302886 2.411638,-1.302886 0.406674,0 1.146609,0.78854 1.146609,1.221928 0,0.218945 -0.138218,0.452656 -0.349629,0.591178 -0.192296,0.125992 -0.395607,0.412273 -0.4518,0.63617 -0.151726,0.604522 -0.871897,1.227656 -1.418831,1.227656 -0.265564,0 -0.732714,0.185397 -1.111792,0.441232 -0.359578,0.242677 -0.693854,0.441233 -0.742832,0.441233 -0.04897,0 -0.305984,0.165464 -0.571122,0.367692 -0.26514,0.202232 -0.517154,0.367693 -0.560034,0.367693 -0.186758,0 -5.686329,3.2747977 -6.966298,4.1481808 -0.392544,0.267851 -0.764474,0.699419 -0.995249,1.154833 -0.312401,0.616495 -0.432592,0.727155 -0.789776,0.727155 -0.305127,0 -0.525018,-0.135993 -0.797443,-0.493149 z m 1.220329,-0.931406 c 0.259465,-0.439762 0.289875,-0.607862 0.161095,-0.890502 -0.139515,-0.3061869 -0.243347,-0.3429793 -0.856854,-0.303602 -0.642122,0.041217 -0.694916,0.073495 -0.658315,0.4025815 0.0418,0.3758515 0.694741,1.3336135 0.909166,1.3336135 0.06878,0 0.268994,-0.24394 0.444908,-0.542091 z m 1.856299,-1.4961674 c 0.588078,-0.3660281 0.635582,-0.4308332 0.367259,-0.501001 -0.169503,-0.044323 -0.308187,-0.1844362 -0.308187,-0.3113568 0,-0.1845972 -0.132404,-0.1507785 -0.661847,0.1690061 -0.688087,0.4156192 -0.783175,0.589448 -0.485355,0.887267 0.247567,0.2475665 0.327161,0.2297242 1.08813,-0.2439153 z m 3.628265,-2.2121618 0.554108,-0.33614 -0.368841,-0.2901306 c -0.456962,-0.359446 -0.635732,-0.265937 -0.554158,0.2898599 0.08237,0.5612077 -0.363916,0.7731432 -0.715016,0.3395522 -0.309496,-0.3822091 -0.609606,-0.1326539 -0.424853,0.3532826 0.150912,0.3969281 0.06487,0.5112197 -0.384877,0.5112197 -0.432092,0 -0.575237,-0.2404332 -0.332202,-0.5579833 0.105625,-0.1380197 0.01296,-0.091271 -0.206118,0.1038969 -0.294712,0.2626329 -0.357783,0.4035051 -0.242729,0.5421378 0.109629,0.132089 0.106555,0.2786744 -0.01046,0.4972549 -0.126308,0.2360091 0.108099,0.1397641 0.982565,-0.403427 0.631645,-0.3923594 1.397795,-0.8646435 1.702555,-1.0495198 z m 2.074962,-1.2668396 c 0.189366,-0.140479 0.240651,-0.287521 0.163603,-0.469073 -0.0983,-0.231622 -0.124214,-0.218901 -0.208743,0.102468 -0.116838,0.444189 -0.583432,0.56842 -0.836263,0.222653 -0.101073,-0.138236 -0.257584,-0.205724 -0.347786,-0.149981 -0.118582,0.07328 -0.113549,0.162158 0.01814,0.320826 0.144947,0.174653 0.144166,0.280269 -0.0038,0.517255 -0.181021,0.2898581 -0.17099,0.2893015 0.37654,-0.02087 0.309385,-0.175264 0.68664,-0.410742 0.83835,-0.523284 z m 2.366577,-1.44238 c 0.244765,-0.17386 0.263234,-0.25943 0.120264,-0.557199 -0.154284,-0.321333 -0.169773,-0.325886 -0.178865,-0.05258 -0.01783,0.53595 -1.33365,1.027875 -1.33365,0.498593 0,-0.06969 -0.09928,-0.08863 -0.220616,-0.04206 -0.280434,0.107618 -0.278216,0.269784 0.0096,0.709195 l 0.230345,0.351504 0.54184,-0.35102 c 0.298014,-0.193061 0.67197,-0.443452 0.831017,-0.556423 z m 1.697954,-0.871039 c 0.511067,-0.548565 1.051078,-1.617976 0.895552,-1.773502 -0.206432,-0.206432 -0.759702,-0.02342 -1.457599,0.482125 -0.660737,0.478635 -0.749844,0.776486 -0.387201,1.294234 0.290446,0.414668 0.561021,0.413854 0.949248,-0.0028 z"
       id="path5084"
       inkscape:connector-curvature="0" />
    <rect
       style="fill:#a68200;fill-opacity:1;stroke:none"
       id="rect5090"
       width="15.366337"
       height="2.1188118"
       x="-4.3806543"
       y="9.4322376"
       ry="0.75912482"
       transform="matrix(0.85125234,-0.52475657,0.52475657,0.85125234,0,0)" />
    <rect
       style="fill:#a68200;fill-opacity:1;stroke:none"
       id="rect5092"
       width="3.6441205"
       height="2.6560791"
       x="8.1915951"
       y="9.2521687"
       ry="0.90108788"
       transform="matrix(0.84444469,-0.53564276,0.50434742,0.86350083,0,0)" />
    <rect
       style="fill:#a68200;fill-opacity:1;stroke:none"
       id="rect5094"
       width="3.2096138"
       height="2.5226431"
       x="8.9589453"
       y="3.0625656"
       ry="0.96464473"
       transform="matrix(0.56217324,0.8270195,-0.81244406,0.58303915,0,0)" />
    <path
       inkscape:connector-curvature="0"
       id="path5086"
       d="M 1.9519281,13.271733 C 1.6281906,12.832931 1.0295901,11.886431 0.62178766,11.168348 L -0.11973563,9.8627816 0.19265495,9.5517344 C 0.38539855,9.3598211 0.76830422,9.299175 1.1923773,9.3933992 1.7364117,9.5142764 2.1773017,9.3563788 3.3071168,8.6360288 4.0921886,8.1354746 5.055993,7.5371399 5.4488989,7.3063869 5.8418064,7.0756326 6.4932388,6.6759911 6.896528,6.4182986 7.2998242,6.160613 7.9904928,5.7286915 8.4313633,5.4584933 8.8722335,5.1882953 9.378382,4.7883072 9.5561403,4.5696328 9.7339059,4.3509643 10.836444,3.9825383 11.254147,3.9228357 11.915242,3.8283448 11.508508,3.0331591 11.88165,2.5891976 12.563684,1.7777167 13.640306,1.2176681 14.255477,1.354351 c 0.469195,0.1042498 1.570166,1.4154492 1.706073,2.0318451 0.06866,0.3113997 -0.156134,1.0044095 -0.356607,1.1472317 -0.182393,0.1298333 -0.287538,0.00971 -0.282159,0.3137427 0.01452,0.8209022 -0.521948,1.6017638 -1.152967,1.4615598 C 13.863426,6.240655 13.323189,6.0677543 12.96606,6.3344476 12.627306,6.587431 12.482147,7.0020008 12.425612,6.9894029 12.36912,6.9768577 12.005655,7.2452996 11.763151,7.464924 11.520665,7.6845833 11.281792,7.8553076 11.232325,7.8443247 11.016855,7.7964486 5.6987344,11.044315 4.4958697,11.958389 4.1269705,12.238719 4.0312174,12.71758 3.9077775,13.306146 3.7406754,14.102889 3.4386883,14.269069 3.0265915,14.177508 2.6745548,14.09929 2.3782121,13.849503 1.9519032,13.271693 z M 3.0677888,12.259846 C 3.2292384,11.700895 3.211609,11.469608 2.9743969,11.034603 2.7174142,10.563359 2.5860812,10.484413 1.890604,10.383146 1.1626894,10.277167 1.1119015,10.309541 1.2573292,10.786974 c 0.1660896,0.54528 1.2197589,2.07486 1.4671487,2.129828 0.079357,0.01764 0.2338504,-0.277996 0.3433109,-0.656956 z M 4.7402884,10.607742 C 5.3039819,10.237882 5.5166918,10.1579 5.1851172,9.989326 4.9756577,9.8828403 4.5934955,9.6480039 4.5536927,9.4674891 4.4958006,9.204943 4.3536463,9.219101 3.8430921,9.5382003 3.1795566,9.9529395 3.1243628,10.175799 3.5613583,10.675718 3.9246201,11.091289 4.010856,11.086314 4.7402884,10.607742 z M 8.2326442,8.3915333 8.7665329,8.0554978 8.289607,7.4294881 C 7.6076469,6.5343521 7.1559116,6.9872956 7.7015494,7.818508 8.1751165,8.5399294 7.3990016,8.9050182 6.9830904,8.1181556 6.4863543,7.1783803 5.9609378,7.6147996 6.6037069,8.5117106 6.9957823,9.0588071 6.8388647,9.2554356 6.3199745,9.1401453 5.8214526,9.0293783 5.6997152,8.4923065 5.8805336,8.1029626 5.9591214,7.9337473 5.4510178,8.0358786 5.2594711,8.2573073 5.0018061,8.5552897 5.2702483,8.8384962 5.4464648,9.0651636 5.6143673,9.2811352 5.5181796,9.6274409 5.4517178,9.9083289 5.3800014,10.211621 5.7588814,9.9962068 6.5974439,9.447809 7.2031758,9.051715 7.938989,8.5763661 8.2326313,8.3915525 z M 10.229343,7.1216548 C 10.403768,6.9703974 10.416828,6.7744121 10.271001,6.4964443 10.084954,6.1418163 10.059044,6.1532646 10.062294,6.5886631 10.066787,7.1904706 9.5674174,7.2475515 9.1672877,6.6909635 9.0073234,6.4684467 8.8253924,6.1145162 8.7388031,6.1706742 8.6249318,6.2444425 8.6388498,6.5900272 8.8405377,6.8494493 9.0625383,7.1350094 9.0947598,7.2850228 8.9983594,7.5841524 8.8804065,7.9500071 8.8918056,7.9517881 9.4262448,7.6509951 9.7282285,7.4810247 10.08964,7.2428223 10.22941,7.1216901 z M 12.507439,5.6768624 C 12.735314,5.4923307 12.729787,5.3753588 12.47146,4.9152016 12.19269,4.4186288 12.173395,4.4081793 12.248608,4.7945677 c 0.147499,0.7576971 -1.216352,1.120043 -1.38233,0.3672588 -0.02186,-0.099117 -0.261152,-0.4089293 -0.386535,-0.3737998 -0.2898,0.081172 -0.117571,0.5698166 0.352286,1.2685564 l 0.375985,0.5589842 0.515067,-0.3603443 c 0.283303,-0.198169 0.636222,-0.4584445 0.784285,-0.5783627 z m 1.685846,-0.8035916 c 0.417613,-0.6492005 0.705286,-2.0317661 0.477079,-2.2928358 -0.3029,-0.3465221 -0.883843,-0.2280563 -1.530499,0.312064 -0.612222,0.5113738 -0.621625,0.912157 -0.04087,1.7414985 0.465138,0.6642238 0.777053,0.73243 1.094307,0.2393541 z"
       style="fill:#7f6300;fill-opacity:1;stroke:#000000;stroke-opacity:1;stroke-width:0.10000000000000001;stroke-miterlimit:4;stroke-dasharray:none"
       sodipodi:nodetypes="cccsssscscsssscssccccsssccsccscsccscscccsssssscscccccssscccccccscccccccccscscc" />
    <path
       sodipodi:type="arc"
       style="fill:#000000;fill-opacity:1;stroke:none"
       id="path5096"
       sodipodi:cx="4.7425742"
       sodipodi:cy="9.0693073"
       sodipodi:rx="0.40594059"
       sodipodi:ry="0.2970297"
       d="m 5.1485148,9.0693073 a 0.40594059,0.2970297 0 1 1 -0.8118812,0 0.40594059,0.2970297 0 1 1 0.8118812,0 z"
       transform="matrix(1.2683067,1.5299955,-1.5299955,1.2683067,12.565701,-9.9202639)"
       inkscape:transform-center-x="-0.47291011"
       inkscape:transform-center-y="-0.12445009" />
    <path
       inkscape:transform-center-y="-0.12445009"
       inkscape:transform-center-x="-0.47291011"
       transform="matrix(1.2683067,1.5299955,-1.5299955,1.2683067,14.941939,-11.326204)"
       d="m 5.1485148,9.0693073 a 0.40594059,0.2970297 0 1 1 -0.8118812,0 0.40594059,0.2970297 0 1 1 0.8118812,0 z"
       sodipodi:ry="0.2970297"
       sodipodi:rx="0.40594059"
       sodipodi:cy="9.0693073"
       sodipodi:cx="4.7425742"
       id="path5098"
       style="fill:#000000;fill-opacity:1;stroke:none"
       sodipodi:type="arc" />
    <path
       sodipodi:type="arc"
       style="fill:#000000;fill-opacity:1;stroke:none"
       id="path5100"
       sodipodi:cx="4.7425742"
       sodipodi:cy="9.0693073"
       sodipodi:rx="0.40594059"
       sodipodi:ry="0.2970297"
       d="m 5.1485148,9.0693073 a 0.40594059,0.2970297 0 1 1 -0.8118812,0 0.40594059,0.2970297 0 1 1 0.8118812,0 z"
       transform="matrix(1.2683067,1.5299955,-1.5299955,1.2683067,17.199365,-12.751947)"
       inkscape:transform-center-x="-0.47291011"
       inkscape:transform-center-y="-0.12445009" />
  </g>
</svg>
