<?xml version="1.0" encoding="UTF-8" standalone="no"?>
<!-- Created with Inkscape (http://www.inkscape.org/) -->

<svg
   xmlns:dc="http://purl.org/dc/elements/1.1/"
   xmlns:cc="http://creativecommons.org/ns#"
   xmlns:rdf="http://www.w3.org/1999/02/22-rdf-syntax-ns#"
   xmlns:svg="http://www.w3.org/2000/svg"
   xmlns="http://www.w3.org/2000/svg"
   xmlns:sodipodi="http://sodipodi.sourceforge.net/DTD/sodipodi-0.dtd"
   xmlns:inkscape="http://www.inkscape.org/namespaces/inkscape"
   width="16px"
   height="16px"
   id="svg3760"
   version="1.1"
   inkscape:version="0.48.4 r9939"
   sodipodi:docname="sax.svg"
   inkscape:export-filename="/home/harald/NetBeansProjects/JMAdmin/artwork/sax.png"
   inkscape:export-xdpi="90"
   inkscape:export-ydpi="90">
  <defs
     id="defs3762" />
  <sodipodi:namedview
     id="base"
     pagecolor="#ffffff"
     bordercolor="#666666"
     borderopacity="1.0"
     inkscape:pageopacity="0.0"
     inkscape:pageshadow="2"
     inkscape:zoom="21.98"
     inkscape:cx="8.0017178"
     inkscape:cy="8.0017178"
     inkscape:current-layer="layer1"
     showgrid="true"
     inkscape:grid-bbox="true"
     inkscape:document-units="px"
     inkscape:snap-grids="false"
     inkscape:window-width="1280"
     inkscape:window-height="977"
     inkscape:window-x="0"
     inkscape:window-y="281"
     inkscape:window-maximized="1">
    <inkscape:grid
       type="xygrid"
       id="grid3768"
       empspacing="4"
       visible="true"
       enabled="true"
       snapvisiblegridlinesonly="true" />
  </sodipodi:namedview>
  <metadata
     id="metadata3765">
    <rdf:RDF>
      <cc:Work
         rdf:about="">
        <dc:format>image/svg+xml</dc:format>
        <dc:type
           rdf:resource="http://purl.org/dc/dcmitype/StillImage" />
        <dc:title></dc:title>
      </cc:Work>
    </rdf:RDF>
  </metadata>
  <g
     inkscape:groupmode="layer"
     id="layer2"
     inkscape:label="Layer"
     style="display:none">
    <rect
       style="fill:#1cacff;fill-opacity:1;stroke:none"
       id="rect3855"
       width="233.48018"
       height="236.56387"
       x="-171.36565"
       y="-116.15859" />
  </g>
  <g
     id="layer1"
     inkscape:label="Layer 1"
     inkscape:groupmode="layer">
    <path
       style="fill:#a68200;fill-opacity:1;stroke:#544200;stroke-width:0.8;stroke-miterlimit:4;stroke-opacity:1;stroke-dasharray:none"
       d="M 8.7223974,14.851425 C 8.7009764,14.834915 8.370355,14.771025 7.9876786,14.709491 7.6050024,14.647921 7.1225324,14.52016 6.9155234,14.425506 c -0.439186,-0.200809 -0.833286,-0.649437 -1.027152,-1.169271 -0.07449,-0.19974 -0.226617,-0.425142 -0.338053,-0.500891 -0.321563,-0.218578 -0.417453,-0.467279 -0.30549,-0.792334 0.117716,-0.341763 0.335837,-0.443389 0.925684,-0.431306 l 0.444103,0.0091 0.05598,-0.517764 c 0.09439,-0.872976 0.07695,-1.0496035 -0.107357,-1.0872805 -0.295376,-0.06038 -0.360814,-0.307165 -0.271588,-1.024214 0.0454,-0.3648978 0.08356,-0.9444667 0.08479,-1.2879412 0.0027,-0.7520198 0.08958,-0.9733037 0.38216,-0.9733037 0.26044,0 0.31586,-0.107425 0.31586,-0.6122537 0,-0.3505884 -0.03058,-0.4210617 -0.260799,-0.6010375 -0.180207,-0.1408795 -0.243225,-0.2422965 -0.20393,-0.3281932 0.09136,-0.1996957 0.21398,-0.2942829 0.381495,-0.2942829 0.199996,0 0.235214,-0.1455648 0.308135,-1.2735646 0.04996,-0.7728457 0.03793,-0.9237458 -0.08538,-1.0708648 -0.09726,-0.1160483 -0.222657,-0.1712553 -0.388965,-0.1712553 -0.295962,0 -0.474509,0.1466333 -0.620913,0.5099324 -0.234041,0.5807795 -0.620792,1.002312 -1.043029,1.1368249 -0.119586,0.03811 -0.543661,0.09384 -0.942389,0.1238645 -0.45413,0.034224 -0.781598,0.094669 -0.876568,0.1618623 -0.08338,0.058958 -0.236585,0.1072606 -0.340446,0.1072606 -0.225758,0 -0.536726,-0.2252741 -0.536726,-0.3888178 0,-0.064264 -0.201066,-0.2760051 -0.446815,-0.4705373 -0.59195,-0.468587 -0.547376,-0.5828643 0.204525,-0.5243469 0.58721,0.1069019 2.11222,0.1542403 2.362562,-0.2851366 0.02972,-0.060527 0.05403,-0.2406526 0.05403,-0.4002582 0,-0.4787197 0.595192,-1.0114434 1.480997,-1.32556594 0.79864,-0.2832086 1.5856211,-0.1069542 2.1350562,0.47818184 0.540103,0.5751975 0.6764385,0.9405814 0.663283,1.7776236 -0.011372,0.7236914 -0.00947,0.7309099 0.1921814,0.7309099 0.112016,0 0.2453059,0.039231 0.2961966,0.087152 0.05089,0.047974 0.1101946,0.4839356 0.1317887,0.9688799 0.021592,0.4849444 0.067002,0.9944808 0.1009257,1.132304 0.044719,0.1817019 0.02337,0.2933264 -0.077658,0.4060793 -0.154126,0.172025 -0.1887586,0.6372568 -0.052356,0.7031645 0.1392404,0.067253 0.1003373,0.489779 -0.056385,0.6122985 -0.1609188,0.1258074 -0.2820247,0.5341883 -0.2877063,0.9702026 -0.00354,0.2684278 -0.023982,0.2938198 -0.2677933,0.3319448 -0.1452021,0.02272 -0.3072339,0.104421 -0.3600717,0.181604 -0.05284,0.07718 -0.1327444,0.542707 -0.1775731,1.0345035 -0.068994,0.756937 -0.060735,0.933034 0.053863,1.147436 0.107672,0.201459 0.1757694,0.24879 0.3328622,0.231357 0.1675921,-0.01861 0.2080458,-0.07854 0.267151,-0.395864 0.5046219,-2.7092309 0.7750785,-3.2696701 1.9699502,-4.0821277 0.383643,-0.2608658 0.605369,-0.4817685 0.794474,-0.791527 0.146096,-0.2393076 0.318876,-0.4296776 0.389983,-0.4296776 0.09329,0 0.112746,-0.046479 0.07222,-0.1727199 -0.05768,-0.1796395 0.152041,-0.4391976 0.354858,-0.4391976 0.231516,0 0.505052,0.3635831 0.823549,1.0946799 0.185712,0.4262925 0.63663,1.3676361 1.00204,2.0918731 0.723531,1.4340218 0.771776,1.6604988 0.361538,1.6971438 -0.137372,0.01226 -0.291964,-0.01069 -0.343539,-0.05096 -0.05158,-0.04035 -0.350121,-0.07263 -0.663438,-0.07181 -1.288341,0.0037 -1.889878,0.507475 -2.691901,2.255851 -0.228141,0.497341 -0.478925,1.000623 -0.557296,1.118405 -0.138283,0.207818 -0.803296,0.703732 -0.9436902,0.703732 -0.03826,0 -0.1494153,0.122385 -0.2470292,0.27197 -0.097614,0.149578 -0.2126204,0.271963 -0.2555699,0.271963 -0.042946,0 -0.1322578,0.01629 -0.1984623,0.03609 -0.066203,0.01988 -0.1378955,0.02257 -0.1593134,0.006 z"
       id="path5183"
       inkscape:connector-curvature="0"
       sodipodi:nodetypes="csssssscsssssssssssssssssssccssssssssssssssssssssssssssssssssssc" />
  </g>
</svg>
