<?xml version="1.0" encoding="UTF-8" standalone="no"?>
<!-- Created with Inkscape (http://www.inkscape.org/) -->

<svg
   xmlns:dc="http://purl.org/dc/elements/1.1/"
   xmlns:cc="http://creativecommons.org/ns#"
   xmlns:rdf="http://www.w3.org/1999/02/22-rdf-syntax-ns#"
   xmlns:svg="http://www.w3.org/2000/svg"
   xmlns="http://www.w3.org/2000/svg"
   xmlns:sodipodi="http://sodipodi.sourceforge.net/DTD/sodipodi-0.dtd"
   xmlns:inkscape="http://www.inkscape.org/namespaces/inkscape"
   width="16px"
   height="16px"
   id="svg3760"
   version="1.1"
   inkscape:version="0.48.4 r9939"
   sodipodi:docname="trombone.svg"
   inkscape:export-filename="/home/harald/NetBeansProjects/JMAdmin/artwork/horn.png"
   inkscape:export-xdpi="90"
   inkscape:export-ydpi="90">
  <defs
     id="defs3762" />
  <sodipodi:namedview
     id="base"
     pagecolor="#ffffff"
     bordercolor="#666666"
     borderopacity="1.0"
     inkscape:pageopacity="0.0"
     inkscape:pageshadow="2"
     inkscape:zoom="24.58"
     inkscape:cx="8.1677257"
     inkscape:cy="7.5539867"
     inkscape:current-layer="layer1"
     showgrid="true"
     inkscape:grid-bbox="true"
     inkscape:document-units="px"
     inkscape:snap-grids="false"
     inkscape:window-width="1280"
     inkscape:window-height="977"
     inkscape:window-x="0"
     inkscape:window-y="281"
     inkscape:window-maximized="1">
    <inkscape:grid
       type="xygrid"
       id="grid3768"
       empspacing="4"
       visible="true"
       enabled="true"
       snapvisiblegridlinesonly="true" />
  </sodipodi:namedview>
  <metadata
     id="metadata3765">
    <rdf:RDF>
      <cc:Work
         rdf:about="">
        <dc:format>image/svg+xml</dc:format>
        <dc:type
           rdf:resource="http://purl.org/dc/dcmitype/StillImage" />
        <dc:title></dc:title>
      </cc:Work>
    </rdf:RDF>
  </metadata>
  <g
     inkscape:groupmode="layer"
     id="layer2"
     inkscape:label="Layer"
     style="display:none">
    <rect
       style="fill:#1cacff;fill-opacity:1;stroke:none"
       id="rect3855"
       width="233.48018"
       height="236.56387"
       x="-171.36565"
       y="-116.15859" />
  </g>
  <g
     id="layer1"
     inkscape:label="Layer 1"
     inkscape:groupmode="layer">
    <path
       style="fill:#000000"
       d="m 38.892553,13.985733 c -0.547951,-0.547949 -0.643307,-0.678857 -0.643307,-0.883147 0,-0.479173 0.391697,-0.854792 0.831964,-0.797815 0.157964,0.02044 0.358294,-0.145454 1.247889,-1.033397 0.582844,-0.581761 1.059717,-1.09185 1.059717,-1.133532 0,-0.04168 -0.238416,-0.3126094 -0.529812,-0.6020617 L 40.329191,9.0095037 38.441206,10.894548 c -1.155009,1.153212 -2.040472,1.976252 -2.280771,2.11998 -1.693266,1.012787 -3.959437,0.03291 -4.406534,-1.905353 -0.155783,-0.675344 -0.04795,-1.4313147 0.305053,-2.1386617 0.08548,-0.1712965 0.969601,-1.1222529 2.138258,-2.2999171 1.095879,-1.1043252 2.045045,-2.1127137 2.10926,-2.2408636 0.253077,-0.5050553 0.297055,-1.9519809 0.07677,-2.526016 -0.06713,-0.1749336 0.09891,-0.5485577 0.26756,-0.6020868 0.07599,-0.024129 0.196351,-0.025379 0.267457,-0.00274 0.07111,0.022573 0.958219,0.8723039 1.971359,1.8883005 1.63379,1.6383991 1.842073,1.8735154 1.842073,2.0793957 0,0.3398208 -0.293945,0.4784713 -0.807785,0.3810238 -0.567468,-0.1076184 -1.451283,-0.087236 -1.891962,0.043632 -0.326592,0.096987 -0.503442,0.2267673 -1.090197,0.8000371 l -0.700372,0.6842674 0.83831,0.8426073 0.838306,0.842605 2.301263,-2.2882129 c 2.663187,-2.648086 2.650843,-2.6394311 3.761526,-2.6375749 0.555792,9.119e-4 0.721253,0.030899 1.073039,0.1943583 0.529519,0.2460444 1.038256,0.7541109 1.287465,1.2857668 0.166019,0.3541811 0.194959,0.5134623 0.194959,1.073039 0,1.1444095 0.03335,1.0991879 -3.179596,4.3113011 -2.573036,2.572367 -2.770983,2.788221 -2.770983,3.021651 0,0.291105 -0.257702,0.708505 -0.473182,0.766411 -0.43891,0.117948 -0.560035,0.05821 -1.219935,-0.601693 z m 1.035999,-0.06646 c 0,-0.170132 -0.800798,-0.969542 -0.971226,-0.969542 -0.192888,0 -0.1469,0.0753 0.376184,0.615966 0.482079,0.498281 0.595042,0.565405 0.595042,0.353576 z M 42.735487,10.55855 C 44.142295,9.1630847 45.414642,7.8649999 45.562923,7.673916 46.444158,6.5383067 45.79583,4.8713196 44.346814,4.5470441 44.003112,4.4701272 43.878523,4.4758398 43.453022,4.5880298 l -0.494421,0.1303606 -3.614155,3.5970151 c -1.987787,1.9783585 -3.724634,3.6524595 -3.859665,3.7202235 -0.342345,0.171804 -0.962249,0.222543 -1.359621,0.111285 -0.478858,-0.134072 -0.944977,-0.573597 -1.128507,-1.064123 -0.18119,-0.484279 -0.186671,-0.6857 -0.03277,-1.2046137 0.11027,-0.3717993 0.24283,-0.5225383 2.122161,-2.41318 2.186048,-2.1992071 2.332311,-2.3097365 3.267533,-2.4692534 0.293062,-0.049986 0.700076,-0.065496 0.967426,-0.036865 0.253837,0.027182 0.461522,0.03705 0.461522,0.021927 0,-0.015124 -0.605079,-0.6319161 -1.344621,-1.3706476 l -1.344622,-1.3431484 0.04057,0.5919833 c 0.04498,0.6561154 -0.05779,1.3287256 -0.280769,1.8377363 -0.105036,0.2397726 -0.672766,0.8591699 -2.145515,2.3407811 -2.310632,2.3245344 -2.407377,2.4627954 -2.399867,3.4297754 0.0058,0.752044 0.207677,1.200769 0.768302,1.708105 0.696028,0.62987 1.566831,0.797927 2.45076,0.472973 0.396433,-0.145737 0.646086,-0.377987 4.036721,-3.7552814 2.087085,-2.078873 3.705842,-3.6346975 3.831153,-3.6822063 0.119349,-0.045248 0.408167,-0.08498 0.641817,-0.088293 0.367234,-0.00521 0.461532,0.023519 0.695668,0.2119204 0.58245,0.46868 0.776938,1.0289742 0.565156,1.6281468 -0.09721,0.275021 -0.558466,0.7713084 -2.830671,3.0456415 l -2.714539,2.717083 0.173982,0.185194 c 0.09569,0.101857 0.191445,0.185194 0.21279,0.185194 0.02134,0 1.189836,-1.141745 2.596645,-2.53721 z m -7.568141,0.937606 c 0.148989,-0.07663 0.360626,-0.233855 0.470301,-0.349374 L 35.837061,10.936748 35.001021,10.10308 34.16498,9.2694125 33.975655,9.447277 c -0.311492,0.2926311 -0.476946,0.622387 -0.483809,0.964251 -0.01788,0.890132 0.899328,1.483873 1.6755,1.084629 z m 1.731415,-1.6132395 0.580941,-0.5843683 -0.836843,-0.8392227 -0.836842,-0.8392236 -0.603951,0.600814 -0.60395,0.6008144 0.82044,0.8227765 c 0.451246,0.4525282 0.838179,0.8227782 0.859855,0.8227782 0.02169,0 0.300834,-0.262967 0.62035,-0.5843685 z m 6.445622,-1.6285457 c 1.400826,-1.4075414 1.403042,-1.4102825 1.403042,-1.7348109 0,-0.5397697 -0.419071,-0.8727428 -0.96865,-0.7696413 -0.184815,0.034672 -0.545103,0.352431 -1.622788,1.4312384 l -1.385232,1.3866723 0.544496,0.5481549 c 0.299473,0.3014854 0.562856,0.5481547 0.585293,0.5481547 0.02244,0 0.672165,-0.6343958 1.443839,-1.4097679 z"
       id="path4841"
       inkscape:connector-curvature="0" />
    <path
       style="fill:#a68200;fill-opacity:1;stroke:#413300;stroke-width:0.5;stroke-miterlimit:4;stroke-opacity:1;stroke-dasharray:none"
       d="m 5.3713942,1.2938703 c 0.220276,0.5740351 0.190578,2.0261947 -0.0625,2.53125 -0.064214,0.1281499 -1.02912,1.1456748 -2.125,2.25 -1.168656,1.1776642 -2.03951,2.1099535 -2.125,2.28125 -0.35300201,0.707347 -0.468283,1.4809067 -0.3125,2.1562497 0.447096,1.938263 2.712984,2.919037 4.40625,1.90625 0.240299,-0.143728 1.126241,-0.971788 2.28125,-2.125 l 1.875,-1.8749997 0.53125,0.5 c 0.2913958,0.2894523 0.5312498,0.583318 0.5312498,0.625 0,0.041682 -0.4796558,0.5432397 -1.0624998,1.1249997 -0.889595,0.887943 -1.092036,1.05169 -1.25,1.03125 -0.440267,-0.05698 -0.8125,0.333327 -0.8125,0.8125 0,0.20429 0.077049,0.327051 0.625,0.875 0.6599,0.659903 0.77984,0.711698 1.21875,0.59375 0.21548,-0.05791 0.5,-0.458895 0.5,-0.75 0,-0.23343 0.1769638,-0.458883 2.7499998,-3.03125 3.212946,-3.2121129 3.1875,-3.1680902 3.1875,-4.3124997 0,-0.5595767 -0.02148,-0.7083189 -0.1875,-1.0625 -0.249209,-0.5316559 -0.751731,-1.0664556 -1.28125,-1.3125 -0.351786,-0.1634593 -0.537958,-0.1865881 -1.09375,-0.1875 -1.110683,-0.00186 -1.086813,0.00816 -3.7499998,2.65625 l -2.3125,2.28125 -0.84375,-0.84375 -0.8125,-0.84375 0.6875,-0.6875 c 0.586755,-0.5732698 0.767158,-0.715513 1.09375,-0.8125 0.440679,-0.130868 1.307532,-0.1388684 1.875,-0.03125 0.51384,0.097448 1.4570318,0.080506 1.09345,-0.2923678 C 9.8523627,4.6040982 9.5051842,4.2135194 7.8713942,2.5751203 6.8582542,1.5591237 5.9737542,0.72269328 5.9026442,0.70012028 5.2549833,-0.17179065 5.4981989,1.0966142 5.3713942,1.2938703 z m 7.4062498,3.84375 c 0.549579,-0.1031015 0.96875,0.2414803 0.96875,0.78125 0,0.3245284 -0.0054,0.3112086 -1.40625,1.71875 -0.771674,0.7753723 -1.41506,1.4375 -1.4375,1.4375 -0.02244,0 -0.294277,-0.2610146 -0.59375,-0.5625 l -0.5624998,-0.5625 1.4062498,-1.375 c 1.077685,-1.0788074 1.440185,-1.402828 1.625,-1.4375 z m -8.051382,1.8254207 0.8951322,0.8933293 0.84375,0.84375 -2.3125,2.1874997 c -0.776172,0.399245 -1.67413,-0.203619 -1.65625,-1.0937497 0.00686,-0.3418646 0.071214,-0.6149818 0.3695913,-0.9209736 z"
       id="path4843"
       inkscape:connector-curvature="0"
       sodipodi:nodetypes="csscsscccsscssssssssccccccssssccsssscccscccccsc" />
  </g>
</svg>
