<?xml version="1.0" encoding="UTF-8" standalone="no"?>
<!-- Created with Inkscape (http://www.inkscape.org/) -->

<svg
   xmlns:dc="http://purl.org/dc/elements/1.1/"
   xmlns:cc="http://creativecommons.org/ns#"
   xmlns:rdf="http://www.w3.org/1999/02/22-rdf-syntax-ns#"
   xmlns:svg="http://www.w3.org/2000/svg"
   xmlns="http://www.w3.org/2000/svg"
   xmlns:sodipodi="http://sodipodi.sourceforge.net/DTD/sodipodi-0.dtd"
   xmlns:inkscape="http://www.inkscape.org/namespaces/inkscape"
   width="16px"
   height="16px"
   id="svg3760"
   version="1.1"
   inkscape:version="0.48.4 r9939"
   sodipodi:docname="trunpet.svg"
   inkscape:export-filename="/home/harald/NetBeansProjects/JMAdmin/artwork/tuba.png"
   inkscape:export-xdpi="90"
   inkscape:export-ydpi="90">
  <defs
     id="defs3762" />
  <sodipodi:namedview
     id="base"
     pagecolor="#ffffff"
     bordercolor="#666666"
     borderopacity="1.0"
     inkscape:pageopacity="0.0"
     inkscape:pageshadow="2"
     inkscape:zoom="50.5"
     inkscape:cx="8"
     inkscape:cy="8"
     inkscape:current-layer="layer1"
     showgrid="true"
     inkscape:grid-bbox="true"
     inkscape:document-units="px"
     inkscape:snap-grids="false"
     inkscape:window-width="1280"
     inkscape:window-height="977"
     inkscape:window-x="0"
     inkscape:window-y="281"
     inkscape:window-maximized="1">
    <inkscape:grid
       type="xygrid"
       id="grid3768"
       empspacing="4"
       visible="true"
       enabled="true"
       snapvisiblegridlinesonly="true" />
  </sodipodi:namedview>
  <metadata
     id="metadata3765">
    <rdf:RDF>
      <cc:Work
         rdf:about="">
        <dc:format>image/svg+xml</dc:format>
        <dc:type
           rdf:resource="http://purl.org/dc/dcmitype/StillImage" />
        <dc:title></dc:title>
      </cc:Work>
    </rdf:RDF>
  </metadata>
  <g
     inkscape:groupmode="layer"
     id="layer2"
     inkscape:label="Layer"
     style="display:none">
    <rect
       style="fill:#1cacff;fill-opacity:1;stroke:none"
       id="rect3855"
       width="233.48018"
       height="236.56387"
       x="-171.36565"
       y="-116.15859" />
  </g>
  <g
     id="layer1"
     inkscape:label="Layer 1"
     inkscape:groupmode="layer">
    <path
       style="fill:#a68200;fill-opacity:1;stroke:#433500;stroke-width:0.7878679;stroke-miterlimit:4;stroke-opacity:1;stroke-dasharray:none"
       d="M 6.5969334,8.3787768 C 5.8681491,8.3002499 5.6734436,8.2111569 5.5718462,7.9096947 5.5073843,7.7184316 5.445351,7.6817664 5.1078678,7.6354575 4.3805651,7.5356663 3.9068211,7.2352728 3.7053344,6.7461478 3.5425035,6.350866 3.5746202,6.0736209 3.8654191,5.3642475 3.9162372,5.2402892 3.8667747,5.2263106 3.3773138,5.2263106 2.94041,5.2263106 2.7890587,5.2596545 2.6122412,5.394878 2.4223735,5.5400787 2.3505416,5.5526089 2.0940662,5.4852741 1.8676004,5.425818 1.7625538,5.432639 1.6552965,5.5137601 1.2985503,5.7835862 0.52291609,5.5032732 0.36834896,5.0486535 0.3117112,4.8820633 0.33476719,4.751296 0.47562952,4.4402102 0.62349386,4.1136605 0.70302396,4.0301796 0.92777683,3.9655992 1.2930163,3.8606506 1.4052886,3.8660684 1.5865217,3.9973706 c 0.1321163,0.095715 0.2105667,0.094813 0.5694171,-0.00661 0.34183,-0.096606 0.7821414,-0.1094098 2.4643941,-0.071666 L 6.6685367,3.9650483 6.6179898,3.5709194 C 6.5532955,3.0664602 6.6389058,2.9087793 7.0699095,2.7385172 7.3592278,2.6242275 7.4462373,2.6181226 7.5969244,2.7015374 c 0.1058319,0.058585 0.2228917,0.072517 0.2830048,0.033675 0.2081149,-0.1344734 0.93018,-0.095104 1.1883916,0.064785 0.2356622,0.1459319 0.2476557,0.1763921 0.2476557,0.6289525 l 0,0.4755936 1.2763775,-0.038242 c 1.404861,-0.042088 1.812707,-0.132405 2.392866,-0.5298964 0.354745,-0.2430508 1.174785,-1.2102238 1.388401,-1.6375103 0.118887,-0.2378059 0.31178,-0.370267 0.429551,-0.2949777 0.03472,0.022195 0.08516,-0.0634 0.112083,-0.1902123 0.08999,-0.42378014 0.486623,-0.37714437 0.63905,0.075137 0.05159,0.1530883 0.08278,1.1552415 0.08406,2.701287 0.0012,1.3518476 0.02422,2.733196 0.05132,3.0696627 0.04223,0.5241751 0.02965,0.6341999 -0.08786,0.768506 -0.265422,0.30338 -0.668699,0.1068053 -0.797728,-0.3888467 C 14.754044,7.2471841 14.670434,7.1212936 14.575788,7.0956922 14.485742,7.0713349 14.353983,6.8858024 14.243925,6.6283885 13.959522,5.9631955 13.442676,5.6113939 12.459987,5.4141141 l -0.246964,-0.04958 0.08395,0.2490965 c 0.04617,0.1370014 0.07052,0.4948768 0.05411,0.7952773 -0.02558,0.4683609 -0.06029,0.5790608 -0.243562,0.7769311 C 11.898704,7.4112953 11.56987,7.5381943 10.953645,7.6311275 10.718644,7.6665648 10.617956,7.731649 10.517213,7.9132194 10.29206,8.3190092 9.9671825,8.4021335 8.515861,8.4252879 7.8033756,8.4366563 6.9398576,8.4157726 6.5969343,8.3787728 z M 5.6230352,6.4388652 C 5.7631054,6.3439318 5.9372154,6.3197737 6.3061694,6.344072 l 0.4951528,0.032613 0,-0.4175468 0,-0.4175458 -0.4182914,0 c -0.47503,0 -1.1163884,0.2241022 -1.3831039,0.483281 -0.2250995,0.2187405 -0.2273102,0.335983 -0.00842,0.4451925 0.2457985,0.1226192 0.4170258,0.1141585 0.6315027,-0.0312 z M 10.919996,6.3671893 C 11.384197,6.1188901 11.051711,5.6729174 10.339642,5.5887463 10.090958,5.5593488 9.7417538,5.5149571 9.563633,5.4900869 l -0.3238574,-0.045213 0,0.4030564 0,0.4030543 0.3619584,0.00581 c 0.439145,0.00711 0.680329,0.049901 0.846347,0.1501777 0.169933,0.1026389 0.212248,0.09907 0.471915,-0.039824 z"
       id="path5001"
       inkscape:connector-curvature="0" />
  </g>
</svg>
