<?xml version="1.0" encoding="UTF-8" standalone="no"?>
<!-- Created with Inkscape (http://www.inkscape.org/) -->

<svg
   xmlns:dc="http://purl.org/dc/elements/1.1/"
   xmlns:cc="http://creativecommons.org/ns#"
   xmlns:rdf="http://www.w3.org/1999/02/22-rdf-syntax-ns#"
   xmlns:svg="http://www.w3.org/2000/svg"
   xmlns="http://www.w3.org/2000/svg"
   xmlns:sodipodi="http://sodipodi.sourceforge.net/DTD/sodipodi-0.dtd"
   xmlns:inkscape="http://www.inkscape.org/namespaces/inkscape"
   width="16px"
   height="16px"
   id="svg3760"
   version="1.1"
   inkscape:version="0.48.4 r9939"
   sodipodi:docname="twoSingers.svg"
   inkscape:export-filename="/home/harald/NetBeansProjects/phon/artwork/twoSingers.png"
   inkscape:export-xdpi="90"
   inkscape:export-ydpi="90">
  <defs
     id="defs3762" />
  <sodipodi:namedview
     id="base"
     pagecolor="#ffffff"
     bordercolor="#666666"
     borderopacity="1.0"
     inkscape:pageopacity="0.0"
     inkscape:pageshadow="2"
     inkscape:zoom="16.16"
     inkscape:cx="10.861385"
     inkscape:cy="6.3762379"
     inkscape:current-layer="layer2"
     showgrid="true"
     inkscape:grid-bbox="true"
     inkscape:document-units="px"
     inkscape:snap-grids="false"
     inkscape:window-width="1280"
     inkscape:window-height="977"
     inkscape:window-x="0"
     inkscape:window-y="281"
     inkscape:window-maximized="1">
    <inkscape:grid
       type="xygrid"
       id="grid3768"
       empspacing="4"
       visible="true"
       enabled="true"
       snapvisiblegridlinesonly="true" />
  </sodipodi:namedview>
  <metadata
     id="metadata3765">
    <rdf:RDF>
      <cc:Work
         rdf:about="">
        <dc:format>image/svg+xml</dc:format>
        <dc:type
           rdf:resource="http://purl.org/dc/dcmitype/StillImage" />
        <dc:title />
      </cc:Work>
    </rdf:RDF>
  </metadata>
  <g
     id="layer1"
     inkscape:label="Layer 1"
     inkscape:groupmode="layer">
    <path
       inkscape:connector-curvature="0"
       style="fill:#bdb38f;fill-opacity:1;stroke:none"
       d="m 6.9360047,6.5936753 c -0.1293959,0.00805 -0.2683276,0.0013 -0.3972152,0.026532 -2.0622013,0.4037413 -3.2214385,2.8986202 -2.595139,5.5717647 0.3287016,1.40295 1.0961886,2.576548 2.0390378,3.316527 -1.8467955,0.642025 -3.0717972,1.759314 -3.0717972,3.051204 0,2.00214 2.9327463,3.634913 6.5672905,3.634913 3.6345444,0 6.5937714,-1.632773 6.5937714,-3.634913 0,-1.766571 -2.28624,-3.233517 -5.322683,-3.555316 0.628324,-0.891545 0.93835,-2.135137 0.79443,-3.47572 0.46682,-0.349311 0.644061,-0.857331 0.397216,-1.379675 C 11.74661,9.7378272 11.333633,9.3848426 10.802232,9.1407677 9.9228138,7.5167936 8.4310995,6.5006497 6.9360047,6.5936753 z"
       id="path5507" />
    <path
       sodipodi:type="arc"
       style="fill:#466c82;fill-opacity:1;stroke:#591316;stroke-width:0.51157844;stroke-miterlimit:4;stroke-opacity:1;stroke-dasharray:none"
       id="path5511"
       sodipodi:cx="9.7153463"
       sodipodi:cy="8.4814358"
       sodipodi:rx="0.92821783"
       sodipodi:ry="0.95915842"
       d="m 10.643564,8.4814358 a 0.92821783,0.95915842 0 1 1 -1.8564355,0 0.92821783,0.95915842 0 1 1 1.8564355,0 z"
       transform="matrix(1.7136779,-0.12817951,0.09589929,0.89473096,-8.4275357,7.8781091)"
       inkscape:transform-center-x="0.35688596"
       inkscape:transform-center-y="-1.0687344" />
    <path
       style="fill:#95a2ad;fill-opacity:1;stroke:none"
       d="m 7.3728103,4.8533197 c -2.3458014,0 -4.2634426,2.3998232 -4.2634426,5.3595073 0,2.279847 1.136981,4.213742 2.727544,4.988055 -0.6733685,-0.791827 -1.0857215,-1.925593 -1.0857215,-3.183865 0,-2.3938617 1.5071364,-4.3247505 3.3895694,-4.3247505 1.7043944,0 3.1376854,1.583667 3.3895694,3.6614455 0.06226,-0.365122 0.07944,-0.75228 0.07944,-1.140885 0,-2.9596841 -1.8911596,-5.3595073 -4.236961,-5.3595073 z"
       id="path5515"
       inkscape:connector-curvature="0" />
    <rect
       style="fill:#0e232e;fill-opacity:1;stroke:none"
       id="rect5525"
       width="1.0487529"
       height="0.31523421"
       x="6.2123647"
       y="11.681293"
       ry="0.15761711" />
    <rect
       ry="0.15761711"
       y="11.418598"
       x="9.4634991"
       height="0.31523421"
       width="1.0487529"
       id="rect5527"
       style="fill:#0e232e;fill-opacity:1;stroke:none" />
  </g>
  <g
     inkscape:groupmode="layer"
     id="layer2"
     inkscape:label="Layer"
     style="display:inline">
    <path
       inkscape:connector-curvature="0"
       id="path5538"
       d="m 10.609308,5.1190684 c -0.13548,0.00805 -0.280944,0.0013 -0.415891,0.026532 -2.159163,0.4037413 -3.3729056,2.8986202 -2.7171585,5.5717646 0.3441566,1.40295 1.1477296,2.576548 2.13491,3.316527 -1.9336288,0.642025 -3.2162281,1.759314 -3.2162281,3.051204 0,2.00214 3.0706393,3.634914 6.8760736,3.634914 3.805435,0 6.9038,-1.632774 6.9038,-3.634914 0,-1.76657 -2.393735,-3.233517 -5.572947,-3.555316 0.657868,-0.891544 0.98247,-2.135137 0.831783,-3.47572 C 15.92242,9.7047491 16.107995,9.1967294 15.849542,8.6743849 15.6461,8.2632203 15.213707,7.9102357 14.65732,7.6661608 13.736552,6.0421867 12.1747,5.0260428 10.609308,5.1190684 z"
       style="fill:#ae9c60;fill-opacity:1;stroke:none" />
    <path
       inkscape:transform-center-y="-1.666737"
       inkscape:transform-center-x="0.34146469"
       transform="matrix(1.7167233,-0.1999013,0.0960697,1.3953702,-4.6865817,2.6685204)"
       d="m 10.643564,8.4814358 a 0.92821783,0.95915842 0 1 1 -1.8564355,0 0.92821783,0.95915842 0 1 1 1.8564355,0 z"
       sodipodi:ry="0.95915842"
       sodipodi:rx="0.92821783"
       sodipodi:cy="8.4814358"
       sodipodi:cx="9.7153463"
       id="path5540"
       style="fill:#233641;fill-opacity:1;stroke:#ce6e72;stroke-width:0.51157844;stroke-miterlimit:4;stroke-opacity:1;stroke-dasharray:none"
       sodipodi:type="arc" />
    <path
       inkscape:connector-curvature="0"
       id="path5542"
       d="m 11.066652,3.3787128 c -2.4560974,0 -4.463903,2.3998232 -4.463903,5.359507 0,2.2798472 1.19044,4.2137432 2.8557887,4.9880552 -0.7050291,-0.791827 -1.1367703,-1.925593 -1.1367703,-3.183865 0,-2.3938616 1.5779995,-4.3247504 3.5489416,-4.3247504 1.784532,0 3.285214,1.583667 3.548941,3.6614453 0.06519,-0.3651215 0.08318,-0.7522794 0.08318,-1.1408851 0,-2.9596838 -1.980079,-5.359507 -4.436176,-5.359507 z"
       style="fill:#608293;fill-opacity:1;stroke:none" />
    <rect
       ry="0.46702304"
       y="9.5878735"
       x="9.4803572"
       height="0.93404609"
       width="1.8406378"
       id="rect5544"
       style="fill:#0e232e;fill-opacity:1;stroke:none" />
    <rect
       style="fill:#0e232e;fill-opacity:1;stroke:none"
       id="rect5546"
       width="2.0881627"
       height="0.99592727"
       x="12.513066"
       y="9.5727034"
       ry="0.49796364" />
  </g>
</svg>
